<svg width="354" height="72" viewBox="0 0 354 72" fill="none" xmlns="http://www.w3.org/2000/svg">
<path d="M29.848 20.48C28 19.64 25.592 18.912 20.552 18.912H9.128C8.848 18.912 8.68 19.136 8.68 19.36V57.552C8.68 57.832 8.848 58.056 9.128 58.056H20.832C26.712 58.056 28.504 57.16 30.576 56.152C33.768 54.584 36.512 52.12 38.416 49.04C40.432 45.904 41.496 42.264 41.496 38.456C41.496 30.616 36.904 23.56 29.848 20.48ZM28.896 45.904C27.104 47.752 23.352 48.928 19.208 48.928H18.704C18.424 48.928 18.2 48.704 18.2 48.424V28.432C18.2 28.152 18.368 27.928 18.648 27.928C21.056 27.872 31.584 28.264 31.64 38.456C31.64 41.48 30.688 44.056 28.896 45.904ZM55.0428 18.912H46.0268C45.7468 18.912 45.5788 19.136 45.5788 19.416V57.552C45.5788 57.776 45.7468 58 46.0268 58H55.0428C55.2668 58 55.4908 57.776 55.4908 57.552V19.416C55.4908 19.136 55.2668 18.912 55.0428 18.912ZM77.9743 34.872C71.2543 31.736 70.1903 31.288 70.1903 29.608C70.1903 27.76 71.8143 26.696 73.3823 26.696C75.1183 26.696 75.9023 27.48 76.2943 28.432C76.3503 28.656 76.6303 28.768 76.8543 28.712L85.0863 26.64C85.3663 26.584 85.4783 26.304 85.4783 26.08C84.7503 21.936 81.2223 19.976 79.5983 19.248C77.2463 18.24 74.9503 18.128 73.7183 18.128C67.2223 18.128 60.2783 22.328 60.2783 30.224C60.2783 37.616 67.1103 40.416 69.6863 41.48L70.1343 41.648C75.5663 44 77.0223 44.616 77.0223 46.52C77.0223 48.256 75.6783 50.104 73.4383 50.104C72.9903 50.104 70.7503 49.936 69.9103 47.192C69.8543 46.912 69.6303 46.8 69.3503 46.856L60.4463 48.704C60.2223 48.76 60.0543 48.984 60.1103 49.264C60.8383 52.4 62.4063 54.304 63.4143 55.312C65.8223 57.552 69.1823 58.672 73.5503 58.672C78.8143 58.672 82.5663 57.048 84.7503 53.856C86.6543 51.112 86.9343 47.808 86.9343 46.128C86.9343 40.976 84.4143 37.784 77.9743 34.872ZM126.177 50.384L119.513 45.512C119.345 45.4 119.009 45.4 118.897 45.624C116.769 48.2 113.689 49.712 110.385 49.712C104.337 49.712 99.4092 44.672 99.4092 38.456C99.4092 32.296 104.337 27.256 110.385 27.256C113.577 27.256 116.545 28.6 118.673 31.064C118.841 31.232 119.121 31.288 119.289 31.12L125.953 26.248C126.177 26.08 126.233 25.8 126.065 25.576C124.329 23.392 122.089 21.544 119.625 20.2C116.769 18.688 113.633 17.904 110.385 17.904C99.2972 17.904 90.3372 27.144 90.3372 38.456C90.3372 49.824 99.2972 59.008 110.385 59.008C116.601 59.008 122.481 56.096 126.289 51.056C126.457 50.888 126.401 50.552 126.177 50.384ZM147.534 17.792C136.446 17.792 127.486 27.032 127.486 38.344C127.486 49.712 136.446 58.952 147.534 58.952C158.622 58.952 167.638 49.712 167.638 38.344C167.638 27.032 158.622 17.792 147.534 17.792ZM147.534 49.6C141.486 49.6 136.558 44.56 136.558 38.344C136.558 32.184 141.486 27.144 147.534 27.144C153.582 27.144 158.566 32.184 158.566 38.344C158.566 44.56 153.582 49.6 147.534 49.6ZM202.839 18.744H192.087C191.863 18.744 191.639 18.912 191.639 19.136L185.759 41.536C185.647 41.984 184.975 41.984 184.863 41.536L179.039 19.136C178.983 18.912 178.815 18.744 178.591 18.744H167.783C167.447 18.744 167.223 19.08 167.335 19.36L180.271 57.664C180.327 57.888 180.495 58 180.719 58H189.959C190.127 58 190.351 57.888 190.407 57.664L203.287 19.36C203.399 19.08 203.175 18.744 202.839 18.744ZM228.851 49.04H216.699C216.419 49.04 216.195 48.816 216.195 48.536V43.16C216.195 42.88 216.419 42.656 216.699 42.656H225.547C225.827 42.656 226.051 42.432 226.051 42.152V34.2C226.051 33.92 225.827 33.696 225.547 33.696H216.699C216.419 33.696 216.195 33.472 216.195 33.192V28.432C216.195 28.152 216.419 27.928 216.699 27.928H228.851C229.131 27.928 229.355 27.704 229.355 27.368L228.571 19.416C228.515 19.136 228.347 18.968 228.067 18.968H206.731C206.451 18.968 206.283 19.192 206.283 19.416V57.496C206.283 57.832 206.507 58.056 206.787 58.056H228.067C228.347 58.056 228.515 57.888 228.571 57.608L229.355 49.6C229.411 49.32 229.131 49.04 228.851 49.04ZM256.288 44.392C256.232 44.224 256.288 43.944 256.512 43.832C257.128 43.44 257.8 42.936 258.528 42.32C260.936 40.192 262.56 36.104 262.56 32.016C262.56 27.872 260.936 24.064 258.08 21.656C255.952 19.864 253.264 18.8 246.264 18.8H234.224C233.944 18.8 233.776 18.968 233.776 19.248V57.384C233.776 57.664 233.944 57.888 234.224 57.888H243.24C243.52 57.888 243.688 57.664 243.688 57.384V46.184C243.688 45.904 243.912 45.736 244.192 45.736H245.76C245.928 45.736 246.096 45.848 246.152 46.016L251.304 57.72C251.36 57.888 251.528 58 251.752 58H261.496C261.832 58 262.056 57.664 261.944 57.328L256.288 44.392ZM250.8 36.16C249.568 36.72 248 36.72 247.104 36.72H244.192C243.912 36.72 243.688 36.496 243.688 36.216V28.264C243.688 27.984 243.912 27.76 244.192 27.76H246.768C247.776 27.76 249.4 27.76 250.688 28.32C252.256 29.048 253.04 30.28 253.04 32.184C253.04 33.528 252.648 35.32 250.8 36.16ZM270.019 54.976C270.019 53.5947 270.355 52.624 271.027 52.064C271.699 51.504 272.502 51.224 273.435 51.224C274.406 51.224 275.227 51.504 275.899 52.064C276.608 52.624 276.963 53.5947 276.963 54.976C276.963 56.32 276.608 57.2907 275.899 57.888C275.227 58.4853 274.406 58.784 273.435 58.784C272.502 58.784 271.699 58.4853 271.027 57.888C270.355 57.2907 270.019 56.32 270.019 54.976ZM312.219 18.8H303.707C303.483 18.8 303.259 19.024 303.259 19.304V42.264C303.259 43.72 303.259 45.624 302.643 47.024C301.971 48.648 300.627 49.432 298.555 49.432C296.595 49.432 295.195 48.592 294.411 46.856V46.8C294.019 45.792 293.851 44.616 293.795 43.608C293.795 43.328 293.571 43.16 293.291 43.16H284.779C284.499 43.16 284.275 43.384 284.331 43.664C284.387 48.144 285.115 50.832 288.139 54.248C291.555 58 296.483 58.392 298.667 58.392C303.091 58.392 306.227 56.992 308.915 54.192C311.267 51.728 312.723 48.872 312.723 42.264V19.304C312.723 19.024 312.499 18.8 312.219 18.8ZM334.61 34.872C327.89 31.736 326.826 31.288 326.826 29.608C326.826 27.76 328.45 26.696 330.018 26.696C331.754 26.696 332.538 27.48 332.93 28.432C332.986 28.656 333.266 28.768 333.49 28.712L341.722 26.64C342.002 26.584 342.114 26.304 342.114 26.08C341.386 21.936 337.858 19.976 336.234 19.248C333.882 18.24 331.586 18.128 330.354 18.128C323.858 18.128 316.914 22.328 316.914 30.224C316.914 37.616 323.746 40.416 326.322 41.48L326.77 41.648C332.202 44 333.658 44.616 333.658 46.52C333.658 48.256 332.314 50.104 330.074 50.104C329.626 50.104 327.386 49.936 326.546 47.192C326.49 46.912 326.266 46.8 325.986 46.856L317.082 48.704C316.858 48.76 316.69 48.984 316.746 49.264C317.474 52.4 319.042 54.304 320.05 55.312C322.458 57.552 325.818 58.672 330.186 58.672C335.45 58.672 339.202 57.048 341.386 53.856C343.29 51.112 343.57 47.808 343.57 46.128C343.57 40.976 341.05 37.784 334.61 34.872Z" fill="#F25185"/>
<path d="M29.848 18.48C28 17.64 25.592 16.912 20.552 16.912H9.128C8.848 16.912 8.68 17.136 8.68 17.36V55.552C8.68 55.832 8.848 56.056 9.128 56.056H20.832C26.712 56.056 28.504 55.16 30.576 54.152C33.768 52.584 36.512 50.12 38.416 47.04C40.432 43.904 41.496 40.264 41.496 36.456C41.496 28.616 36.904 21.56 29.848 18.48ZM28.896 43.904C27.104 45.752 23.352 46.928 19.208 46.928H18.704C18.424 46.928 18.2 46.704 18.2 46.424V26.432C18.2 26.152 18.368 25.928 18.648 25.928C21.056 25.872 31.584 26.264 31.64 36.456C31.64 39.48 30.688 42.056 28.896 43.904ZM55.0428 16.912H46.0268C45.7468 16.912 45.5788 17.136 45.5788 17.416V55.552C45.5788 55.776 45.7468 56 46.0268 56H55.0428C55.2668 56 55.4908 55.776 55.4908 55.552V17.416C55.4908 17.136 55.2668 16.912 55.0428 16.912ZM77.9743 32.872C71.2543 29.736 70.1903 29.288 70.1903 27.608C70.1903 25.76 71.8143 24.696 73.3823 24.696C75.1183 24.696 75.9023 25.48 76.2943 26.432C76.3503 26.656 76.6303 26.768 76.8543 26.712L85.0863 24.64C85.3663 24.584 85.4783 24.304 85.4783 24.08C84.7503 19.936 81.2223 17.976 79.5983 17.248C77.2463 16.24 74.9503 16.128 73.7183 16.128C67.2223 16.128 60.2783 20.328 60.2783 28.224C60.2783 35.616 67.1103 38.416 69.6863 39.48L70.1343 39.648C75.5663 42 77.0223 42.616 77.0223 44.52C77.0223 46.256 75.6783 48.104 73.4383 48.104C72.9903 48.104 70.7503 47.936 69.9103 45.192C69.8543 44.912 69.6303 44.8 69.3503 44.856L60.4463 46.704C60.2223 46.76 60.0543 46.984 60.1103 47.264C60.8383 50.4 62.4063 52.304 63.4143 53.312C65.8223 55.552 69.1823 56.672 73.5503 56.672C78.8143 56.672 82.5663 55.048 84.7503 51.856C86.6543 49.112 86.9343 45.808 86.9343 44.128C86.9343 38.976 84.4143 35.784 77.9743 32.872ZM126.177 48.384L119.513 43.512C119.345 43.4 119.009 43.4 118.897 43.624C116.769 46.2 113.689 47.712 110.385 47.712C104.337 47.712 99.4092 42.672 99.4092 36.456C99.4092 30.296 104.337 25.256 110.385 25.256C113.577 25.256 116.545 26.6 118.673 29.064C118.841 29.232 119.121 29.288 119.289 29.12L125.953 24.248C126.177 24.08 126.233 23.8 126.065 23.576C124.329 21.392 122.089 19.544 119.625 18.2C116.769 16.688 113.633 15.904 110.385 15.904C99.2972 15.904 90.3372 25.144 90.3372 36.456C90.3372 47.824 99.2972 57.008 110.385 57.008C116.601 57.008 122.481 54.096 126.289 49.056C126.457 48.888 126.401 48.552 126.177 48.384ZM147.534 15.792C136.446 15.792 127.486 25.032 127.486 36.344C127.486 47.712 136.446 56.952 147.534 56.952C158.622 56.952 167.638 47.712 167.638 36.344C167.638 25.032 158.622 15.792 147.534 15.792ZM147.534 47.6C141.486 47.6 136.558 42.56 136.558 36.344C136.558 30.184 141.486 25.144 147.534 25.144C153.582 25.144 158.566 30.184 158.566 36.344C158.566 42.56 153.582 47.6 147.534 47.6ZM202.839 16.744H192.087C191.863 16.744 191.639 16.912 191.639 17.136L185.759 39.536C185.647 39.984 184.975 39.984 184.863 39.536L179.039 17.136C178.983 16.912 178.815 16.744 178.591 16.744H167.783C167.447 16.744 167.223 17.08 167.335 17.36L180.271 55.664C180.327 55.888 180.495 56 180.719 56H189.959C190.127 56 190.351 55.888 190.407 55.664L203.287 17.36C203.399 17.08 203.175 16.744 202.839 16.744ZM228.851 47.04H216.699C216.419 47.04 216.195 46.816 216.195 46.536V41.16C216.195 40.88 216.419 40.656 216.699 40.656H225.547C225.827 40.656 226.051 40.432 226.051 40.152V32.2C226.051 31.92 225.827 31.696 225.547 31.696H216.699C216.419 31.696 216.195 31.472 216.195 31.192V26.432C216.195 26.152 216.419 25.928 216.699 25.928H228.851C229.131 25.928 229.355 25.704 229.355 25.368L228.571 17.416C228.515 17.136 228.347 16.968 228.067 16.968H206.731C206.451 16.968 206.283 17.192 206.283 17.416V55.496C206.283 55.832 206.507 56.056 206.787 56.056H228.067C228.347 56.056 228.515 55.888 228.571 55.608L229.355 47.6C229.411 47.32 229.131 47.04 228.851 47.04ZM256.288 42.392C256.232 42.224 256.288 41.944 256.512 41.832C257.128 41.44 257.8 40.936 258.528 40.32C260.936 38.192 262.56 34.104 262.56 30.016C262.56 25.872 260.936 22.064 258.08 19.656C255.952 17.864 253.264 16.8 246.264 16.8H234.224C233.944 16.8 233.776 16.968 233.776 17.248V55.384C233.776 55.664 233.944 55.888 234.224 55.888H243.24C243.52 55.888 243.688 55.664 243.688 55.384V44.184C243.688 43.904 243.912 43.736 244.192 43.736H245.76C245.928 43.736 246.096 43.848 246.152 44.016L251.304 55.72C251.36 55.888 251.528 56 251.752 56H261.496C261.832 56 262.056 55.664 261.944 55.328L256.288 42.392ZM250.8 34.16C249.568 34.72 248 34.72 247.104 34.72H244.192C243.912 34.72 243.688 34.496 243.688 34.216V26.264C243.688 25.984 243.912 25.76 244.192 25.76H246.768C247.776 25.76 249.4 25.76 250.688 26.32C252.256 27.048 253.04 28.28 253.04 30.184C253.04 31.528 252.648 33.32 250.8 34.16ZM270.019 52.976C270.019 51.5947 270.355 50.624 271.027 50.064C271.699 49.504 272.502 49.224 273.435 49.224C274.406 49.224 275.227 49.504 275.899 50.064C276.608 50.624 276.963 51.5947 276.963 52.976C276.963 54.32 276.608 55.2907 275.899 55.888C275.227 56.4853 274.406 56.784 273.435 56.784C272.502 56.784 271.699 56.4853 271.027 55.888C270.355 55.2907 270.019 54.32 270.019 52.976ZM312.219 16.8H303.707C303.483 16.8 303.259 17.024 303.259 17.304V40.264C303.259 41.72 303.259 43.624 302.643 45.024C301.971 46.648 300.627 47.432 298.555 47.432C296.595 47.432 295.195 46.592 294.411 44.856V44.8C294.019 43.792 293.851 42.616 293.795 41.608C293.795 41.328 293.571 41.16 293.291 41.16H284.779C284.499 41.16 284.275 41.384 284.331 41.664C284.387 46.144 285.115 48.832 288.139 52.248C291.555 56 296.483 56.392 298.667 56.392C303.091 56.392 306.227 54.992 308.915 52.192C311.267 49.728 312.723 46.872 312.723 40.264V17.304C312.723 17.024 312.499 16.8 312.219 16.8ZM334.61 32.872C327.89 29.736 326.826 29.288 326.826 27.608C326.826 25.76 328.45 24.696 330.018 24.696C331.754 24.696 332.538 25.48 332.93 26.432C332.986 26.656 333.266 26.768 333.49 26.712L341.722 24.64C342.002 24.584 342.114 24.304 342.114 24.08C341.386 19.936 337.858 17.976 336.234 17.248C333.882 16.24 331.586 16.128 330.354 16.128C323.858 16.128 316.914 20.328 316.914 28.224C316.914 35.616 323.746 38.416 326.322 39.48L326.77 39.648C332.202 42 333.658 42.616 333.658 44.52C333.658 46.256 332.314 48.104 330.074 48.104C329.626 48.104 327.386 47.936 326.546 45.192C326.49 44.912 326.266 44.8 325.986 44.856L317.082 46.704C316.858 46.76 316.69 46.984 316.746 47.264C317.474 50.4 319.042 52.304 320.05 53.312C322.458 55.552 325.818 56.672 330.186 56.672C335.45 56.672 339.202 55.048 341.386 51.856C343.29 49.112 343.57 45.808 343.57 44.128C343.57 38.976 341.05 35.784 334.61 32.872Z" fill="#C0A156"/>
<path d="M29.848 16.48C28 15.64 25.592 14.912 20.552 14.912H9.128C8.848 14.912 8.68 15.136 8.68 15.36V53.552C8.68 53.832 8.848 54.056 9.128 54.056H20.832C26.712 54.056 28.504 53.16 30.576 52.152C33.768 50.584 36.512 48.12 38.416 45.04C40.432 41.904 41.496 38.264 41.496 34.456C41.496 26.616 36.904 19.56 29.848 16.48ZM28.896 41.904C27.104 43.752 23.352 44.928 19.208 44.928H18.704C18.424 44.928 18.2 44.704 18.2 44.424V24.432C18.2 24.152 18.368 23.928 18.648 23.928C21.056 23.872 31.584 24.264 31.64 34.456C31.64 37.48 30.688 40.056 28.896 41.904ZM55.0428 14.912H46.0268C45.7468 14.912 45.5788 15.136 45.5788 15.416V53.552C45.5788 53.776 45.7468 54 46.0268 54H55.0428C55.2668 54 55.4908 53.776 55.4908 53.552V15.416C55.4908 15.136 55.2668 14.912 55.0428 14.912ZM77.9743 30.872C71.2543 27.736 70.1903 27.288 70.1903 25.608C70.1903 23.76 71.8143 22.696 73.3823 22.696C75.1183 22.696 75.9023 23.48 76.2943 24.432C76.3503 24.656 76.6303 24.768 76.8543 24.712L85.0863 22.64C85.3663 22.584 85.4783 22.304 85.4783 22.08C84.7503 17.936 81.2223 15.976 79.5983 15.248C77.2463 14.24 74.9503 14.128 73.7183 14.128C67.2223 14.128 60.2783 18.328 60.2783 26.224C60.2783 33.616 67.1103 36.416 69.6863 37.48L70.1343 37.648C75.5663 40 77.0223 40.616 77.0223 42.52C77.0223 44.256 75.6783 46.104 73.4383 46.104C72.9903 46.104 70.7503 45.936 69.9103 43.192C69.8543 42.912 69.6303 42.8 69.3503 42.856L60.4463 44.704C60.2223 44.76 60.0543 44.984 60.1103 45.264C60.8383 48.4 62.4063 50.304 63.4143 51.312C65.8223 53.552 69.1823 54.672 73.5503 54.672C78.8143 54.672 82.5663 53.048 84.7503 49.856C86.6543 47.112 86.9343 43.808 86.9343 42.128C86.9343 36.976 84.4143 33.784 77.9743 30.872ZM126.177 46.384L119.513 41.512C119.345 41.4 119.009 41.4 118.897 41.624C116.769 44.2 113.689 45.712 110.385 45.712C104.337 45.712 99.4092 40.672 99.4092 34.456C99.4092 28.296 104.337 23.256 110.385 23.256C113.577 23.256 116.545 24.6 118.673 27.064C118.841 27.232 119.121 27.288 119.289 27.12L125.953 22.248C126.177 22.08 126.233 21.8 126.065 21.576C124.329 19.392 122.089 17.544 119.625 16.2C116.769 14.688 113.633 13.904 110.385 13.904C99.2972 13.904 90.3372 23.144 90.3372 34.456C90.3372 45.824 99.2972 55.008 110.385 55.008C116.601 55.008 122.481 52.096 126.289 47.056C126.457 46.888 126.401 46.552 126.177 46.384ZM147.534 13.792C136.446 13.792 127.486 23.032 127.486 34.344C127.486 45.712 136.446 54.952 147.534 54.952C158.622 54.952 167.638 45.712 167.638 34.344C167.638 23.032 158.622 13.792 147.534 13.792ZM147.534 45.6C141.486 45.6 136.558 40.56 136.558 34.344C136.558 28.184 141.486 23.144 147.534 23.144C153.582 23.144 158.566 28.184 158.566 34.344C158.566 40.56 153.582 45.6 147.534 45.6ZM202.839 14.744H192.087C191.863 14.744 191.639 14.912 191.639 15.136L185.759 37.536C185.647 37.984 184.975 37.984 184.863 37.536L179.039 15.136C178.983 14.912 178.815 14.744 178.591 14.744H167.783C167.447 14.744 167.223 15.08 167.335 15.36L180.271 53.664C180.327 53.888 180.495 54 180.719 54H189.959C190.127 54 190.351 53.888 190.407 53.664L203.287 15.36C203.399 15.08 203.175 14.744 202.839 14.744ZM228.851 45.04H216.699C216.419 45.04 216.195 44.816 216.195 44.536V39.16C216.195 38.88 216.419 38.656 216.699 38.656H225.547C225.827 38.656 226.051 38.432 226.051 38.152V30.2C226.051 29.92 225.827 29.696 225.547 29.696H216.699C216.419 29.696 216.195 29.472 216.195 29.192V24.432C216.195 24.152 216.419 23.928 216.699 23.928H228.851C229.131 23.928 229.355 23.704 229.355 23.368L228.571 15.416C228.515 15.136 228.347 14.968 228.067 14.968H206.731C206.451 14.968 206.283 15.192 206.283 15.416V53.496C206.283 53.832 206.507 54.056 206.787 54.056H228.067C228.347 54.056 228.515 53.888 228.571 53.608L229.355 45.6C229.411 45.32 229.131 45.04 228.851 45.04ZM256.288 40.392C256.232 40.224 256.288 39.944 256.512 39.832C257.128 39.44 257.8 38.936 258.528 38.32C260.936 36.192 262.56 32.104 262.56 28.016C262.56 23.872 260.936 20.064 258.08 17.656C255.952 15.864 253.264 14.8 246.264 14.8H234.224C233.944 14.8 233.776 14.968 233.776 15.248V53.384C233.776 53.664 233.944 53.888 234.224 53.888H243.24C243.52 53.888 243.688 53.664 243.688 53.384V42.184C243.688 41.904 243.912 41.736 244.192 41.736H245.76C245.928 41.736 246.096 41.848 246.152 42.016L251.304 53.72C251.36 53.888 251.528 54 251.752 54H261.496C261.832 54 262.056 53.664 261.944 53.328L256.288 40.392ZM250.8 32.16C249.568 32.72 248 32.72 247.104 32.72H244.192C243.912 32.72 243.688 32.496 243.688 32.216V24.264C243.688 23.984 243.912 23.76 244.192 23.76H246.768C247.776 23.76 249.4 23.76 250.688 24.32C252.256 25.048 253.04 26.28 253.04 28.184C253.04 29.528 252.648 31.32 250.8 32.16ZM270.019 50.976C270.019 49.5947 270.355 48.624 271.027 48.064C271.699 47.504 272.502 47.224 273.435 47.224C274.406 47.224 275.227 47.504 275.899 48.064C276.608 48.624 276.963 49.5947 276.963 50.976C276.963 52.32 276.608 53.2907 275.899 53.888C275.227 54.4853 274.406 54.784 273.435 54.784C272.502 54.784 271.699 54.4853 271.027 53.888C270.355 53.2907 270.019 52.32 270.019 50.976ZM312.219 14.8H303.707C303.483 14.8 303.259 15.024 303.259 15.304V38.264C303.259 39.72 303.259 41.624 302.643 43.024C301.971 44.648 300.627 45.432 298.555 45.432C296.595 45.432 295.195 44.592 294.411 42.856V42.8C294.019 41.792 293.851 40.616 293.795 39.608C293.795 39.328 293.571 39.16 293.291 39.16H284.779C284.499 39.16 284.275 39.384 284.331 39.664C284.387 44.144 285.115 46.832 288.139 50.248C291.555 54 296.483 54.392 298.667 54.392C303.091 54.392 306.227 52.992 308.915 50.192C311.267 47.728 312.723 44.872 312.723 38.264V15.304C312.723 15.024 312.499 14.8 312.219 14.8ZM334.61 30.872C327.89 27.736 326.826 27.288 326.826 25.608C326.826 23.76 328.45 22.696 330.018 22.696C331.754 22.696 332.538 23.48 332.93 24.432C332.986 24.656 333.266 24.768 333.49 24.712L341.722 22.64C342.002 22.584 342.114 22.304 342.114 22.08C341.386 17.936 337.858 15.976 336.234 15.248C333.882 14.24 331.586 14.128 330.354 14.128C323.858 14.128 316.914 18.328 316.914 26.224C316.914 33.616 323.746 36.416 326.322 37.48L326.77 37.648C332.202 40 333.658 40.616 333.658 42.52C333.658 44.256 332.314 46.104 330.074 46.104C329.626 46.104 327.386 45.936 326.546 43.192C326.49 42.912 326.266 42.8 325.986 42.856L317.082 44.704C316.858 44.76 316.69 44.984 316.746 45.264C317.474 48.4 319.042 50.304 320.05 51.312C322.458 53.552 325.818 54.672 330.186 54.672C335.45 54.672 339.202 53.048 341.386 49.856C343.29 47.112 343.57 43.808 343.57 42.128C343.57 36.976 341.05 33.784 334.61 30.872Z" fill="#60B3DC"/>
<path d="M29.848 14.48C28 13.64 25.592 12.912 20.552 12.912H9.128C8.848 12.912 8.68 13.136 8.68 13.36V51.552C8.68 51.832 8.848 52.056 9.128 52.056H20.832C26.712 52.056 28.504 51.16 30.576 50.152C33.768 48.584 36.512 46.12 38.416 43.04C40.432 39.904 41.496 36.264 41.496 32.456C41.496 24.616 36.904 17.56 29.848 14.48ZM28.896 39.904C27.104 41.752 23.352 42.928 19.208 42.928H18.704C18.424 42.928 18.2 42.704 18.2 42.424V22.432C18.2 22.152 18.368 21.928 18.648 21.928C21.056 21.872 31.584 22.264 31.64 32.456C31.64 35.48 30.688 38.056 28.896 39.904ZM55.0428 12.912H46.0268C45.7468 12.912 45.5788 13.136 45.5788 13.416V51.552C45.5788 51.776 45.7468 52 46.0268 52H55.0428C55.2668 52 55.4908 51.776 55.4908 51.552V13.416C55.4908 13.136 55.2668 12.912 55.0428 12.912ZM77.9743 28.872C71.2543 25.736 70.1903 25.288 70.1903 23.608C70.1903 21.76 71.8143 20.696 73.3823 20.696C75.1183 20.696 75.9023 21.48 76.2943 22.432C76.3503 22.656 76.6303 22.768 76.8543 22.712L85.0863 20.64C85.3663 20.584 85.4783 20.304 85.4783 20.08C84.7503 15.936 81.2223 13.976 79.5983 13.248C77.2463 12.24 74.9503 12.128 73.7183 12.128C67.2223 12.128 60.2783 16.328 60.2783 24.224C60.2783 31.616 67.1103 34.416 69.6863 35.48L70.1343 35.648C75.5663 38 77.0223 38.616 77.0223 40.52C77.0223 42.256 75.6783 44.104 73.4383 44.104C72.9903 44.104 70.7503 43.936 69.9103 41.192C69.8543 40.912 69.6303 40.8 69.3503 40.856L60.4463 42.704C60.2223 42.76 60.0543 42.984 60.1103 43.264C60.8383 46.4 62.4063 48.304 63.4143 49.312C65.8223 51.552 69.1823 52.672 73.5503 52.672C78.8143 52.672 82.5663 51.048 84.7503 47.856C86.6543 45.112 86.9343 41.808 86.9343 40.128C86.9343 34.976 84.4143 31.784 77.9743 28.872ZM126.177 44.384L119.513 39.512C119.345 39.4 119.009 39.4 118.897 39.624C116.769 42.2 113.689 43.712 110.385 43.712C104.337 43.712 99.4092 38.672 99.4092 32.456C99.4092 26.296 104.337 21.256 110.385 21.256C113.577 21.256 116.545 22.6 118.673 25.064C118.841 25.232 119.121 25.288 119.289 25.12L125.953 20.248C126.177 20.08 126.233 19.8 126.065 19.576C124.329 17.392 122.089 15.544 119.625 14.2C116.769 12.688 113.633 11.904 110.385 11.904C99.2972 11.904 90.3372 21.144 90.3372 32.456C90.3372 43.824 99.2972 53.008 110.385 53.008C116.601 53.008 122.481 50.096 126.289 45.056C126.457 44.888 126.401 44.552 126.177 44.384ZM147.534 11.792C136.446 11.792 127.486 21.032 127.486 32.344C127.486 43.712 136.446 52.952 147.534 52.952C158.622 52.952 167.638 43.712 167.638 32.344C167.638 21.032 158.622 11.792 147.534 11.792ZM147.534 43.6C141.486 43.6 136.558 38.56 136.558 32.344C136.558 26.184 141.486 21.144 147.534 21.144C153.582 21.144 158.566 26.184 158.566 32.344C158.566 38.56 153.582 43.6 147.534 43.6ZM202.839 12.744H192.087C191.863 12.744 191.639 12.912 191.639 13.136L185.759 35.536C185.647 35.984 184.975 35.984 184.863 35.536L179.039 13.136C178.983 12.912 178.815 12.744 178.591 12.744H167.783C167.447 12.744 167.223 13.08 167.335 13.36L180.271 51.664C180.327 51.888 180.495 52 180.719 52H189.959C190.127 52 190.351 51.888 190.407 51.664L203.287 13.36C203.399 13.08 203.175 12.744 202.839 12.744ZM228.851 43.04H216.699C216.419 43.04 216.195 42.816 216.195 42.536V37.16C216.195 36.88 216.419 36.656 216.699 36.656H225.547C225.827 36.656 226.051 36.432 226.051 36.152V28.2C226.051 27.92 225.827 27.696 225.547 27.696H216.699C216.419 27.696 216.195 27.472 216.195 27.192V22.432C216.195 22.152 216.419 21.928 216.699 21.928H228.851C229.131 21.928 229.355 21.704 229.355 21.368L228.571 13.416C228.515 13.136 228.347 12.968 228.067 12.968H206.731C206.451 12.968 206.283 13.192 206.283 13.416V51.496C206.283 51.832 206.507 52.056 206.787 52.056H228.067C228.347 52.056 228.515 51.888 228.571 51.608L229.355 43.6C229.411 43.32 229.131 43.04 228.851 43.04ZM256.288 38.392C256.232 38.224 256.288 37.944 256.512 37.832C257.128 37.44 257.8 36.936 258.528 36.32C260.936 34.192 262.56 30.104 262.56 26.016C262.56 21.872 260.936 18.064 258.08 15.656C255.952 13.864 253.264 12.8 246.264 12.8H234.224C233.944 12.8 233.776 12.968 233.776 13.248V51.384C233.776 51.664 233.944 51.888 234.224 51.888H243.24C243.52 51.888 243.688 51.664 243.688 51.384V40.184C243.688 39.904 243.912 39.736 244.192 39.736H245.76C245.928 39.736 246.096 39.848 246.152 40.016L251.304 51.72C251.36 51.888 251.528 52 251.752 52H261.496C261.832 52 262.056 51.664 261.944 51.328L256.288 38.392ZM250.8 30.16C249.568 30.72 248 30.72 247.104 30.72H244.192C243.912 30.72 243.688 30.496 243.688 30.216V22.264C243.688 21.984 243.912 21.76 244.192 21.76H246.768C247.776 21.76 249.4 21.76 250.688 22.32C252.256 23.048 253.04 24.28 253.04 26.184C253.04 27.528 252.648 29.32 250.8 30.16ZM270.019 48.976C270.019 47.5947 270.355 46.624 271.027 46.064C271.699 45.504 272.502 45.224 273.435 45.224C274.406 45.224 275.227 45.504 275.899 46.064C276.608 46.624 276.963 47.5947 276.963 48.976C276.963 50.32 276.608 51.2907 275.899 51.888C275.227 52.4853 274.406 52.784 273.435 52.784C272.502 52.784 271.699 52.4853 271.027 51.888C270.355 51.2907 270.019 50.32 270.019 48.976ZM312.219 12.8H303.707C303.483 12.8 303.259 13.024 303.259 13.304V36.264C303.259 37.72 303.259 39.624 302.643 41.024C301.971 42.648 300.627 43.432 298.555 43.432C296.595 43.432 295.195 42.592 294.411 40.856V40.8C294.019 39.792 293.851 38.616 293.795 37.608C293.795 37.328 293.571 37.16 293.291 37.16H284.779C284.499 37.16 284.275 37.384 284.331 37.664C284.387 42.144 285.115 44.832 288.139 48.248C291.555 52 296.483 52.392 298.667 52.392C303.091 52.392 306.227 50.992 308.915 48.192C311.267 45.728 312.723 42.872 312.723 36.264V13.304C312.723 13.024 312.499 12.8 312.219 12.8ZM334.61 28.872C327.89 25.736 326.826 25.288 326.826 23.608C326.826 21.76 328.45 20.696 330.018 20.696C331.754 20.696 332.538 21.48 332.93 22.432C332.986 22.656 333.266 22.768 333.49 22.712L341.722 20.64C342.002 20.584 342.114 20.304 342.114 20.08C341.386 15.936 337.858 13.976 336.234 13.248C333.882 12.24 331.586 12.128 330.354 12.128C323.858 12.128 316.914 16.328 316.914 24.224C316.914 31.616 323.746 34.416 326.322 35.48L326.77 35.648C332.202 38 333.658 38.616 333.658 40.52C333.658 42.256 332.314 44.104 330.074 44.104C329.626 44.104 327.386 43.936 326.546 41.192C326.49 40.912 326.266 40.8 325.986 40.856L317.082 42.704C316.858 42.76 316.69 42.984 316.746 43.264C317.474 46.4 319.042 48.304 320.05 49.312C322.458 51.552 325.818 52.672 330.186 52.672C335.45 52.672 339.202 51.048 341.386 47.856C343.29 45.112 343.57 41.808 343.57 40.128C343.57 34.976 341.05 31.784 334.61 28.872Z" fill="white"/>
</svg>
