<svg width="80" height="150" viewBox="0 0 80 150" fill="none" xmlns="http://www.w3.org/2000/svg">
<rect width="7.11427" height="13.6472" transform="matrix(-0.858993 -0.511988 0.46404 -0.885814 -5.88892 134.015)" fill="#F25185"/>
<rect width="7.11427" height="13.6472" transform="matrix(-0.858993 -0.511988 0.46404 -0.885814 6.94263 134.015)" fill="#60B3DC"/>
<rect width="7.11427" height="13.6472" transform="matrix(-0.858993 -0.511988 0.46404 -0.885814 22.3408 132.731)" fill="#C0A156"/>
<rect width="7.11427" height="13.6472" transform="matrix(-0.858993 -0.511988 0.46404 -0.885814 35.1724 132.731)" fill="#F25185"/>
<rect width="7.11427" height="13.6472" transform="matrix(-0.858993 -0.511988 0.46404 -0.885814 48.0039 132.731)" fill="#9629C4"/>
<rect width="7.11427" height="13.6472" transform="matrix(-0.858993 -0.511988 0.46404 -0.885814 60.8354 132.731)" fill="#C0A156"/>
<rect width="7.11427" height="13.6472" transform="matrix(-0.858993 -0.511988 0.46404 -0.885814 73.6672 132.731)" fill="#F25185"/>
<rect width="7.11427" height="13.6472" transform="matrix(-0.858993 -0.511988 0.46404 -0.885814 -5.88892 149.079)" fill="#F25185"/>
<rect width="7.11427" height="13.6472" transform="matrix(-0.858993 -0.511988 0.46404 -0.885814 6.94263 149.079)" fill="#60B3DC"/>
<rect width="7.11427" height="13.6472" transform="matrix(-0.858993 -0.511988 0.46404 -0.885814 22.3408 147.796)" fill="#C0A156"/>
<rect width="7.11427" height="13.6472" transform="matrix(-0.858993 -0.511988 0.46404 -0.885814 35.1724 147.796)" fill="#F25185"/>
<rect width="7.11427" height="13.6472" transform="matrix(-0.858993 -0.511988 0.46404 -0.885814 48.0039 147.796)" fill="#9629C4"/>
<rect width="7.11427" height="13.6472" transform="matrix(-0.858993 -0.511988 0.46404 -0.885814 60.8354 147.796)" fill="#C0A156"/>
<rect width="7.11427" height="13.6472" transform="matrix(-0.858993 -0.511988 0.46404 -0.885814 73.6672 147.796)" fill="#F25185"/>
<rect width="8.18074" height="15.693" transform="matrix(-0.858993 -0.511988 0.46404 -0.885814 34.9639 18.0894)" fill="#60B3DC"/>
<rect width="8.18074" height="15.693" transform="matrix(-0.858993 -0.511988 0.46404 -0.885814 34.9639 34.3203)" fill="#60B3DC"/>
<rect width="8.18074" height="15.693" transform="matrix(-0.858993 -0.511988 0.46404 -0.885814 34.9639 50.5508)" fill="#60B3DC"/>
<rect width="8.18074" height="15.693" transform="matrix(-0.858993 -0.511988 0.46404 -0.885814 34.9639 18.0894)" fill="#60B3DC"/>
<rect width="8.18074" height="15.693" transform="matrix(-0.858993 -0.511988 0.46404 -0.885814 34.9639 34.3203)" fill="#60B3DC"/>
<rect width="8.18074" height="15.693" transform="matrix(-0.858993 -0.511988 0.46404 -0.885814 34.9639 50.5508)" fill="#60B3DC"/>
<rect width="8.18074" height="15.693" transform="matrix(-0.858993 -0.511988 0.46404 -0.885814 1.0271 19.5649)" fill="#60B3DC"/>
<rect width="8.18074" height="15.693" transform="matrix(-0.858993 -0.511988 0.46404 -0.885814 1.0271 35.7959)" fill="#96E489"/>
<rect width="8.18074" height="15.693" transform="matrix(-0.858993 -0.511988 0.46404 -0.885814 1.0271 19.5649)" fill="#60B3DC"/>
<rect width="8.18074" height="15.693" transform="matrix(-0.858993 -0.511988 0.46404 -0.885814 1.0271 35.7959)" fill="#C0A156"/>
</svg>
