<svg width="325" height="431" viewBox="0 0 325 431" fill="none" xmlns="http://www.w3.org/2000/svg">
<rect width="8.18074" height="15.693" transform="matrix(-0.858993 -0.511988 0.46404 -0.885814 149.687 239.089)" fill="#60B3DC"/>
<rect width="8.18074" height="15.693" transform="matrix(-0.858993 -0.511988 0.46404 -0.885814 149.687 255.32)" fill="#60B3DC"/>
<rect width="8.18074" height="15.693" transform="matrix(-0.858993 -0.511988 0.46404 -0.885814 149.687 271.551)" fill="#60B3DC"/>
<rect width="8.18074" height="15.693" transform="matrix(-0.858993 -0.511988 0.46404 -0.885814 149.687 239.089)" fill="#60B3DC"/>
<rect width="8.18074" height="15.693" transform="matrix(-0.858993 -0.511988 0.46404 -0.885814 149.687 255.32)" fill="#60B3DC"/>
<rect width="8.18074" height="15.693" transform="matrix(-0.858993 -0.511988 0.46404 -0.885814 149.687 271.551)" fill="#60B3DC"/>
<rect width="8.18074" height="15.693" transform="matrix(-0.858993 -0.511988 0.46404 -0.885814 224.184 158.09)" fill="#60B3DC"/>
<rect width="8.18074" height="15.693" transform="matrix(-0.858993 -0.511988 0.46404 -0.885814 224.184 174.32)" fill="#60B3DC"/>
<rect width="8.18074" height="15.693" transform="matrix(-0.858993 -0.511988 0.46404 -0.885814 224.184 190.551)" fill="#60B3DC"/>
<rect width="8.18074" height="15.693" transform="matrix(-0.858993 -0.511988 0.46404 -0.885814 224.184 158.09)" fill="#60B3DC"/>
<rect width="8.18074" height="15.693" transform="matrix(-0.858993 -0.511988 0.46404 -0.885814 224.184 174.32)" fill="#60B3DC"/>
<rect width="8.18074" height="15.693" transform="matrix(-0.858993 -0.511988 0.46404 -0.885814 224.184 190.551)" fill="#60B3DC"/>
<rect width="8.18074" height="15.693" transform="matrix(-0.858993 -0.511988 0.46404 -0.885814 238.939 159.565)" fill="#96E489"/>
<rect width="8.18074" height="15.693" transform="matrix(-0.858993 -0.511988 0.46404 -0.885814 238.939 175.796)" fill="#96E489"/>
<rect width="8.18074" height="15.693" transform="matrix(-0.858993 -0.511988 0.46404 -0.885814 238.939 192.026)" fill="#96E489"/>
<rect width="8.18074" height="15.693" transform="matrix(-0.858993 -0.511988 0.46404 -0.885814 238.939 159.565)" fill="#F25185"/>
<rect width="8.18074" height="15.693" transform="matrix(-0.858993 -0.511988 0.46404 -0.885814 238.939 175.796)" fill="#FDE12D"/>
<rect width="8.18074" height="15.693" transform="matrix(-0.858993 -0.511988 0.46404 -0.885814 238.939 192.026)" fill="#F25185"/>
<rect width="8.18074" height="15.693" transform="matrix(-0.858993 -0.511988 0.46404 -0.885814 255.17 175.796)" fill="#F25185"/>
<rect width="8.18074" height="15.693" transform="matrix(-0.858993 -0.511988 0.46404 -0.885814 255.17 175.796)" fill="#F25185"/>
<rect width="8.18074" height="15.693" transform="matrix(-0.858993 -0.511988 0.46404 -0.885814 256.094 285.733)" fill="#FDE12D"/>
<rect width="8.18074" height="15.693" transform="matrix(-0.858993 -0.511988 0.46404 -0.885814 269.925 159.565)" fill="#F25185"/>
<rect width="8.18074" height="15.693" transform="matrix(-0.858993 -0.511988 0.46404 -0.885814 269.925 175.796)" fill="#F25185"/>
<rect width="8.18074" height="15.693" transform="matrix(-0.858993 -0.511988 0.46404 -0.885814 269.925 192.026)" fill="#F25185"/>
<rect width="8.18074" height="15.693" transform="matrix(-0.858993 -0.511988 0.46404 -0.885814 269.925 159.565)" fill="#F25185"/>
<rect width="8.18074" height="15.693" transform="matrix(-0.858993 -0.511988 0.46404 -0.885814 269.925 175.796)" fill="#F25185"/>
<rect width="8.18074" height="15.693" transform="matrix(-0.858993 -0.511988 0.46404 -0.885814 279.094 259.733)" fill="#F25185"/>
<rect width="8.18074" height="15.693" transform="matrix(-0.858993 -0.511988 0.46404 -0.885814 286.156 159.565)" fill="#60B3DC"/>
<rect width="8.18074" height="15.693" transform="matrix(-0.858993 -0.511988 0.46404 -0.885814 286.156 175.796)" fill="#60B3DC"/>
<rect width="8.18074" height="15.693" transform="matrix(-0.858993 -0.511988 0.46404 -0.885814 286.156 192.026)" fill="#60B3DC"/>
<rect width="8.18074" height="15.693" transform="matrix(-0.858993 -0.511988 0.46404 -0.885814 286.156 159.565)" fill="#60B3DC"/>
<rect width="8.18074" height="15.693" transform="matrix(-0.858993 -0.511988 0.46404 -0.885814 286.156 175.796)" fill="#60B3DC"/>
<rect width="8.18074" height="15.693" transform="matrix(-0.858993 -0.511988 0.46404 -0.885814 286.156 192.026)" fill="#60B3DC"/>
<rect width="8.18074" height="15.693" transform="matrix(-0.858993 -0.511988 0.46404 -0.885814 302.386 159.565)" fill="#9629C4"/>
<rect width="8.18074" height="15.693" transform="matrix(-0.858993 -0.511988 0.46404 -0.885814 302.386 175.796)" fill="#9629C4"/>
<rect width="8.18074" height="15.693" transform="matrix(-0.858993 -0.511988 0.46404 -0.885814 302.386 192.026)" fill="#9629C4"/>
<rect width="8.18074" height="15.693" transform="matrix(-0.858993 -0.511988 0.46404 -0.885814 302.386 159.565)" fill="#9629C4"/>
<rect width="8.18074" height="15.693" transform="matrix(-0.858993 -0.511988 0.46404 -0.885814 302.386 175.796)" fill="#9629C4"/>
<rect width="8.18074" height="15.693" transform="matrix(-0.858993 -0.511988 0.46404 -0.885814 302.386 192.026)" fill="#9629C4"/>
<rect width="8.18074" height="15.693" transform="matrix(-0.858993 -0.511988 0.46404 -0.885814 317.142 159.565)" fill="#9629C4"/>
<rect width="8.18074" height="15.693" transform="matrix(-0.858993 -0.511988 0.46404 -0.885814 317.142 175.796)" fill="#9629C4"/>
<rect width="8.18074" height="15.693" transform="matrix(-0.858993 -0.511988 0.46404 -0.885814 317.142 159.565)" fill="#9629C4"/>
<rect width="8.18074" height="15.693" transform="matrix(-0.858993 -0.511988 0.46404 -0.885814 317.142 175.796)" fill="#9629C4"/>
<rect width="8.18074" height="15.693" transform="matrix(-0.858993 -0.511988 0.46404 -0.885814 301.094 284.733)" fill="#9629C4"/>
<rect width="8.18074" height="15.693" transform="matrix(-0.858993 -0.511988 0.46404 -0.885814 15.415 274.502)" fill="#F25185"/>
<rect width="8.18074" height="15.693" transform="matrix(-0.858993 -0.511988 0.46404 -0.885814 15.8147 290.6)" fill="#F25185"/>
<rect width="8.18074" height="15.693" transform="matrix(-0.858993 -0.511988 0.46404 -0.885814 15.8147 306.831)" fill="#F25185"/>
<rect width="8.18074" height="15.693" transform="matrix(-0.858993 -0.511988 0.46404 -0.885814 15.8147 323.062)" fill="#F25185"/>
<rect width="8.18074" height="15.693" transform="matrix(-0.858993 -0.511988 0.46404 -0.885814 15.8147 339.292)" fill="#60B3DC"/>
<rect width="8.18074" height="15.693" transform="matrix(-0.858993 -0.511988 0.46404 -0.885814 15.8147 355.522)" fill="#60B3DC"/>
<rect width="8.18074" height="15.693" transform="matrix(-0.858993 -0.511988 0.46404 -0.885814 15.415 274.502)" fill="#F25185"/>
<rect width="8.18074" height="15.693" transform="matrix(-0.858993 -0.511988 0.46404 -0.885814 15.8147 290.6)" fill="#F25185"/>
<rect width="8.18074" height="15.693" transform="matrix(-0.858993 -0.511988 0.46404 -0.885814 15.8147 306.831)" fill="#F25185"/>
<rect width="8.18074" height="15.693" transform="matrix(-0.858993 -0.511988 0.46404 -0.885814 15.8147 323.062)" fill="#F25185"/>
<rect width="8.18074" height="15.693" transform="matrix(-0.858993 -0.511988 0.46404 -0.885814 15.8147 339.292)" fill="#60B3DC"/>
<rect width="8.18074" height="15.693" transform="matrix(-0.858993 -0.511988 0.46404 -0.885814 15.8147 355.522)" fill="#60B3DC"/>
<rect width="8.18074" height="15.693" transform="matrix(-0.858993 -0.511988 0.46404 -0.885814 46.4009 274.502)" fill="#C0A156"/>
<rect width="8.18074" height="15.693" transform="matrix(-0.858993 -0.511988 0.46404 -0.885814 46.8005 290.6)" fill="#C0A156"/>
<rect width="8.18074" height="15.693" transform="matrix(-0.858993 -0.511988 0.46404 -0.885814 46.8005 306.831)" fill="#C0A156"/>
<rect width="8.18074" height="15.693" transform="matrix(-0.858993 -0.511988 0.46404 -0.885814 46.8005 323.062)" fill="#C0A156"/>
<rect width="8.18074" height="15.693" transform="matrix(-0.858993 -0.511988 0.46404 -0.885814 46.8005 339.292)" fill="#C0A156"/>
<rect width="8.18074" height="15.693" transform="matrix(-0.858993 -0.511988 0.46404 -0.885814 46.8005 355.522)" fill="#C0A156"/>
<rect width="8.18074" height="15.693" transform="matrix(-0.858993 -0.511988 0.46404 -0.885814 46.4009 274.502)" fill="#FDE12D"/>
<rect width="8.18074" height="15.693" transform="matrix(-0.858993 -0.511988 0.46404 -0.885814 46.8005 290.6)" fill="#FDE12D"/>
<rect width="8.18074" height="15.693" transform="matrix(-0.858993 -0.511988 0.46404 -0.885814 46.8005 306.831)" fill="#FDE12D"/>
<rect width="8.18074" height="15.693" transform="matrix(-0.858993 -0.511988 0.46404 -0.885814 46.8005 323.062)" fill="#FDE12D"/>
<rect width="8.18074" height="15.693" transform="matrix(-0.858993 -0.511988 0.46404 -0.885814 46.8005 339.292)" fill="#FDE12D"/>
<rect width="8.18074" height="15.693" transform="matrix(-0.858993 -0.511988 0.46404 -0.885814 46.8005 355.522)" fill="#FDE12D"/>
<rect width="8.18074" height="15.693" transform="matrix(-0.858993 -0.511988 0.46404 -0.885814 115.75 240.565)" fill="#60B3DC"/>
<rect width="8.18074" height="15.693" transform="matrix(-0.858993 -0.511988 0.46404 -0.885814 115.75 256.796)" fill="#96E489"/>
<rect width="8.18074" height="15.693" transform="matrix(-0.858993 -0.511988 0.46404 -0.885814 115.75 240.565)" fill="#60B3DC"/>
<rect width="8.18074" height="15.693" transform="matrix(-0.858993 -0.511988 0.46404 -0.885814 115.75 256.796)" fill="#FDE12D"/>
<rect width="8.18074" height="15.693" transform="matrix(-0.858993 -0.511988 0.46404 -0.885814 150.094 393.733)" fill="#60B3DC"/>
<rect width="8.18074" height="15.693" transform="matrix(-0.858993 -0.511988 0.46404 -0.885814 150.094 409.964)" fill="#60B3DC"/>
<rect width="8.18074" height="15.693" transform="matrix(-0.858993 -0.511988 0.46404 -0.885814 150.094 393.733)" fill="#60B3DC"/>
<rect width="8.18074" height="15.693" transform="matrix(-0.858993 -0.511988 0.46404 -0.885814 150.094 409.964)" fill="#60B3DC"/>
<rect width="8.18074" height="15.693" transform="matrix(-0.858993 -0.511988 0.46404 -0.885814 171.592 412.874)" fill="#F25185"/>
<rect width="8.18074" height="15.693" transform="matrix(-0.858993 -0.511988 0.46404 -0.885814 186.347 412.874)" fill="#60B3DC"/>
<rect width="8.18074" height="15.693" transform="matrix(-0.858993 -0.511988 0.46404 -0.885814 204.053 411.398)" fill="#FDE12D"/>
<rect width="8.18074" height="15.693" transform="matrix(-0.858993 -0.511988 0.46404 -0.885814 218.809 411.398)" fill="#F25185"/>
<rect width="8.18074" height="15.693" transform="matrix(-0.858993 -0.511988 0.46404 -0.885814 233.564 411.398)" fill="#9629C4"/>
<rect width="8.18074" height="15.693" transform="matrix(-0.858993 -0.511988 0.46404 -0.885814 248.319 411.398)" fill="#FDE12D"/>
<rect width="8.18074" height="15.693" transform="matrix(-0.858993 -0.511988 0.46404 -0.885814 263.074 411.398)" fill="#F25185"/>
<rect width="8.18074" height="15.693" transform="matrix(-0.858993 -0.511988 0.46404 -0.885814 171.592 430.196)" fill="#F25185"/>
<rect width="8.18074" height="15.693" transform="matrix(-0.858993 -0.511988 0.46404 -0.885814 186.347 430.196)" fill="#60B3DC"/>
<rect width="8.18074" height="15.693" transform="matrix(-0.858993 -0.511988 0.46404 -0.885814 204.053 428.721)" fill="#FDE12D"/>
<rect width="8.18074" height="15.693" transform="matrix(-0.858993 -0.511988 0.46404 -0.885814 218.809 428.721)" fill="#F25185"/>
<rect width="8.18074" height="15.693" transform="matrix(-0.858993 -0.511988 0.46404 -0.885814 233.564 428.721)" fill="#9629C4"/>
<rect width="8.18074" height="15.693" transform="matrix(-0.858993 -0.511988 0.46404 -0.885814 248.319 428.721)" fill="#FDE12D"/>
<rect width="8.18074" height="15.693" transform="matrix(-0.858993 -0.511988 0.46404 -0.885814 263.074 428.721)" fill="#F25185"/>
<rect width="8.18074" height="15.693" transform="matrix(-0.858993 -0.511988 0.46404 -0.885814 81.8132 258.271)" fill="#60B3DC"/>
<rect width="8.18074" height="15.693" transform="matrix(-0.858993 -0.511988 0.46404 -0.885814 81.8132 274.502)" fill="#60B3DC"/>
<rect width="8.18074" height="15.693" transform="matrix(-0.858993 -0.511988 0.46404 -0.885814 81.8132 258.271)" fill="#60B3DC"/>
<rect width="8.18074" height="15.693" transform="matrix(-0.858993 -0.511988 0.46404 -0.885814 81.8132 274.502)" fill="#60B3DC"/>
<rect width="8.18074" height="15.693" transform="matrix(-0.858993 -0.511988 0.46404 -0.885814 61.156 274.502)" fill="#60B3DC"/>
<rect width="8.18074" height="15.693" transform="matrix(-0.858993 -0.511988 0.46404 -0.885814 61.5557 290.6)" fill="#60B3DC"/>
<rect width="8.18074" height="15.693" transform="matrix(-0.858993 -0.511988 0.46404 -0.885814 61.5557 306.831)" fill="#60B3DC"/>
<rect width="8.18074" height="15.693" transform="matrix(-0.858993 -0.511988 0.46404 -0.885814 61.5557 323.062)" fill="#60B3DC"/>
<rect width="8.18074" height="15.693" transform="matrix(-0.858993 -0.511988 0.46404 -0.885814 61.5557 290.6)" fill="#60B3DC"/>
<rect width="8.18074" height="15.693" transform="matrix(-0.858993 -0.511988 0.46404 -0.885814 61.5557 306.831)" fill="#60B3DC"/>
<rect width="8.18074" height="15.693" transform="matrix(-0.858993 -0.511988 0.46404 -0.885814 61.5557 323.062)" fill="#60B3DC"/>
<rect width="8.18074" height="15.693" transform="matrix(-0.858993 -0.511988 0.46404 -0.885814 30.1702 275.978)" fill="#F25185"/>
<rect width="8.18074" height="15.693" transform="matrix(-0.858993 -0.511988 0.46404 -0.885814 30.5701 292.076)" fill="#F25185"/>
<rect width="8.18074" height="15.693" transform="matrix(-0.858993 -0.511988 0.46404 -0.885814 30.5701 308.306)" fill="#F25185"/>
<rect width="8.18074" height="15.693" transform="matrix(-0.858993 -0.511988 0.46404 -0.885814 30.5701 324.537)" fill="#F25185"/>
<rect width="8.18074" height="15.693" transform="matrix(-0.858993 -0.511988 0.46404 -0.885814 30.1702 275.978)" fill="#F25185"/>
<rect width="8.18074" height="15.693" transform="matrix(-0.858993 -0.511988 0.46404 -0.885814 30.5701 292.076)" fill="#F25185"/>
<rect width="8.18074" height="15.693" transform="matrix(-0.858993 -0.511988 0.46404 -0.885814 30.5701 308.306)" fill="#F25185"/>
<rect width="8.18074" height="15.693" transform="matrix(-0.858993 -0.511988 0.46404 -0.885814 30.5701 324.537)" fill="#F25185"/>
<rect width="8.18074" height="15.693" transform="matrix(-0.858993 -0.511988 0.46404 -0.885814 -0.815674 274.502)" fill="#9629C4"/>
<rect width="8.18074" height="15.693" transform="matrix(-0.858993 -0.511988 0.46404 -0.885814 -0.415771 290.6)" fill="#9629C4"/>
<rect width="8.18074" height="15.693" transform="matrix(-0.858993 -0.511988 0.46404 -0.885814 -0.415771 306.831)" fill="#9629C4"/>
<rect width="8.18074" height="15.693" transform="matrix(-0.858993 -0.511988 0.46404 -0.885814 -0.415771 323.062)" fill="#9629C4"/>
<rect width="8.18074" height="15.693" transform="matrix(-0.858993 -0.511988 0.46404 -0.885814 -0.415771 290.6)" fill="#9629C4"/>
<rect width="8.18074" height="15.693" transform="matrix(-0.858993 -0.511988 0.46404 -0.885814 -0.415771 306.831)" fill="#9629C4"/>
<rect width="8.18074" height="15.693" transform="matrix(-0.858993 -0.511988 0.46404 -0.885814 -0.415771 323.062)" fill="#9629C4"/>
<rect width="7.52081" height="14.4271" transform="matrix(-0.858993 -0.511988 0.46404 -0.885814 35.1458 34.6304)" fill="#C0A156"/>
<rect width="7.52081" height="14.4271" transform="matrix(-0.858993 -0.511988 0.46404 -0.885814 50.1455 50.2739)" fill="#C0A156"/>
<rect width="7.52081" height="14.4271" transform="matrix(-0.858993 -0.511988 0.46404 -0.885814 50.1455 65.1953)" fill="#C0A156"/>
<rect width="7.52081" height="14.4271" transform="matrix(-0.858993 -0.511988 0.46404 -0.885814 50.1455 80.1167)" fill="#C0A156"/>
<rect width="7.52081" height="14.4271" transform="matrix(-0.858993 -0.511988 0.46404 -0.885814 50.1455 95.0381)" fill="#C0A156"/>
<rect width="7.52081" height="14.4271" transform="matrix(-0.858993 -0.511988 0.46404 -0.885814 50.1455 109.959)" fill="#C0A156"/>
<rect width="7.52081" height="14.4271" transform="matrix(-0.858993 -0.511988 0.46404 -0.885814 35.1458 34.6304)" fill="#FDE12D"/>
<rect width="7.52081" height="14.4271" transform="matrix(-0.858993 -0.511988 0.46404 -0.885814 50.1455 50.2739)" fill="#FDE12D"/>
<rect width="7.52081" height="14.4271" transform="matrix(-0.858993 -0.511988 0.46404 -0.885814 50.1455 65.1953)" fill="#FDE12D"/>
<rect width="7.52081" height="14.4271" transform="matrix(-0.858993 -0.511988 0.46404 -0.885814 50.1455 80.1167)" fill="#FDE12D"/>
<rect width="7.52081" height="14.4271" transform="matrix(-0.858993 -0.511988 0.46404 -0.885814 50.1455 95.0381)" fill="#FDE12D"/>
<rect width="7.52081" height="14.4271" transform="matrix(-0.858993 -0.511988 0.46404 -0.885814 50.1455 109.959)" fill="#FDE12D"/>
<rect width="7.52081" height="14.4271" transform="matrix(-0.858993 -0.511988 0.46404 -0.885814 50.0671 34.6304)" fill="#96E489"/>
<rect width="7.52081" height="14.4271" transform="matrix(-0.858993 -0.511988 0.46404 -0.885814 65.0669 50.2739)" fill="#F25185"/>
<rect width="7.52081" height="14.4271" transform="matrix(-0.858993 -0.511988 0.46404 -0.885814 65.0669 65.1953)" fill="#F25185"/>
<rect width="7.52081" height="14.4271" transform="matrix(-0.858993 -0.511988 0.46404 -0.885814 65.0669 80.1167)" fill="#F25185"/>
<rect width="7.52081" height="14.4271" transform="matrix(-0.858993 -0.511988 0.46404 -0.885814 65.0669 95.0381)" fill="#F25185"/>
<rect width="7.52081" height="14.4271" transform="matrix(-0.858993 -0.511988 0.46404 -0.885814 65.0669 109.959)" fill="#F25185"/>
<rect width="7.52081" height="14.4271" transform="matrix(-0.858993 -0.511988 0.46404 -0.885814 50.0671 34.6304)" fill="#F25185"/>
<rect width="7.52081" height="14.4271" transform="matrix(-0.858993 -0.511988 0.46404 -0.885814 65.0669 50.2739)" fill="#F25185"/>
<rect width="7.52081" height="14.4271" transform="matrix(-0.858993 -0.511988 0.46404 -0.885814 65.0669 65.1953)" fill="#F25185"/>
<rect width="7.52081" height="14.4271" transform="matrix(-0.858993 -0.511988 0.46404 -0.885814 65.0669 80.1167)" fill="#F25185"/>
<rect width="7.52081" height="14.4271" transform="matrix(-0.858993 -0.511988 0.46404 -0.885814 65.0669 95.0381)" fill="#F25185"/>
<rect width="7.52081" height="14.4271" transform="matrix(-0.858993 -0.511988 0.46404 -0.885814 65.0669 109.959)" fill="#F25185"/>
<rect width="7.52081" height="14.4271" transform="matrix(-0.858993 -0.511988 0.46404 -0.885814 6.73804 50.2739)" fill="#60B3DC"/>
<rect width="7.52081" height="14.4271" transform="matrix(-0.858993 -0.511988 0.46404 -0.885814 6.73804 65.1953)" fill="#60B3DC"/>
<rect width="7.52081" height="14.4271" transform="matrix(-0.858993 -0.511988 0.46404 -0.885814 6.73804 80.1167)" fill="#60B3DC"/>
<rect width="7.52081" height="14.4271" transform="matrix(-0.858993 -0.511988 0.46404 -0.885814 6.73804 95.0381)" fill="#60B3DC"/>
<rect width="7.52081" height="14.4271" transform="matrix(-0.858993 -0.511988 0.46404 -0.885814 6.73804 109.959)" fill="#60B3DC"/>
<rect width="7.52081" height="14.4271" transform="matrix(-0.858993 -0.511988 0.46404 -0.885814 6.73804 65.1953)" fill="#60B3DC"/>
<rect width="7.52081" height="14.4271" transform="matrix(-0.858993 -0.511988 0.46404 -0.885814 6.73804 80.1167)" fill="#60B3DC"/>
<rect width="7.52081" height="14.4271" transform="matrix(-0.858993 -0.511988 0.46404 -0.885814 6.73804 95.0381)" fill="#60B3DC"/>
<rect width="7.52081" height="14.4271" transform="matrix(-0.858993 -0.511988 0.46404 -0.885814 6.73804 109.959)" fill="#60B3DC"/>
<rect width="7.52081" height="14.4271" transform="matrix(-0.858993 -0.511988 0.46404 -0.885814 6.37012 125.002)" fill="#F25185"/>
<rect width="7.52081" height="14.4271" transform="matrix(-0.858993 -0.511988 0.46404 -0.885814 6.73804 139.802)" fill="#F25185"/>
<rect width="7.52081" height="14.4271" transform="matrix(-0.858993 -0.511988 0.46404 -0.885814 6.73804 154.723)" fill="#F25185"/>
<rect width="7.52081" height="14.4271" transform="matrix(-0.858993 -0.511988 0.46404 -0.885814 6.73804 169.645)" fill="#F25185"/>
<rect width="7.52081" height="14.4271" transform="matrix(-0.858993 -0.511988 0.46404 -0.885814 6.37012 125.002)" fill="#F25185"/>
<rect width="7.52081" height="14.4271" transform="matrix(-0.858993 -0.511988 0.46404 -0.885814 6.73804 139.802)" fill="#F25185"/>
<rect width="7.52081" height="14.4271" transform="matrix(-0.858993 -0.511988 0.46404 -0.885814 6.73804 154.723)" fill="#F25185"/>
<rect width="7.52081" height="14.4271" transform="matrix(-0.858993 -0.511988 0.46404 -0.885814 6.73804 169.645)" fill="#F25185"/>
<rect width="7.52081" height="14.4271" transform="matrix(-0.858993 -0.511988 0.46404 -0.885814 5.30298 34.6304)" fill="#60B3DC"/>
<rect width="7.52081" height="14.4271" transform="matrix(-0.858993 -0.511988 0.46404 -0.885814 20.3027 50.2739)" fill="#60B3DC"/>
<rect width="7.52081" height="14.4271" transform="matrix(-0.858993 -0.511988 0.46404 -0.885814 20.3027 65.1953)" fill="#60B3DC"/>
<rect width="7.52081" height="14.4271" transform="matrix(-0.858993 -0.511988 0.46404 -0.885814 20.3027 80.1167)" fill="#60B3DC"/>
<rect width="7.52081" height="14.4271" transform="matrix(-0.858993 -0.511988 0.46404 -0.885814 20.3027 95.0381)" fill="#60B3DC"/>
<rect width="7.52081" height="14.4271" transform="matrix(-0.858993 -0.511988 0.46404 -0.885814 223.528 37.2739)" fill="#60B3DC"/>
<rect width="7.52081" height="14.4271" transform="matrix(-0.858993 -0.511988 0.46404 -0.885814 20.3027 50.2739)" fill="#60B3DC"/>
<rect width="7.52081" height="14.4271" transform="matrix(-0.858993 -0.511988 0.46404 -0.885814 20.3027 65.1953)" fill="#60B3DC"/>
<rect width="7.52081" height="14.4271" transform="matrix(-0.858993 -0.511988 0.46404 -0.885814 20.3027 80.1167)" fill="#60B3DC"/>
<rect width="7.52081" height="14.4271" transform="matrix(-0.858993 -0.511988 0.46404 -0.885814 20.3027 95.0381)" fill="#60B3DC"/>
<rect width="7.52081" height="14.4271" transform="matrix(-0.858993 -0.511988 0.46404 -0.885814 19.9353 125.002)" fill="#F25185"/>
<rect width="7.52081" height="14.4271" transform="matrix(-0.858993 -0.511988 0.46404 -0.885814 20.3027 139.802)" fill="#F25185"/>
<rect width="7.52081" height="14.4271" transform="matrix(-0.858993 -0.511988 0.46404 -0.885814 20.3027 154.723)" fill="#F25185"/>
<rect width="7.52081" height="14.4271" transform="matrix(-0.858993 -0.511988 0.46404 -0.885814 20.3027 169.645)" fill="#F25185"/>
<rect width="7.52081" height="14.4271" transform="matrix(-0.858993 -0.511988 0.46404 -0.885814 134.528 126.274)" fill="#60B3DC"/>
<rect width="7.52081" height="14.4271" transform="matrix(-0.858993 -0.511988 0.46404 -0.885814 20.3027 139.802)" fill="#F25185"/>
<rect width="7.52081" height="14.4271" transform="matrix(-0.858993 -0.511988 0.46404 -0.885814 20.3027 154.723)" fill="#F25185"/>
<rect width="7.52081" height="14.4271" transform="matrix(-0.858993 -0.511988 0.46404 -0.885814 20.3027 169.645)" fill="#F25185"/>
<rect width="7.52081" height="14.4271" transform="matrix(-0.858993 -0.511988 0.46404 -0.885814 21.5806 34.6304)" fill="#9B62DF"/>
<rect width="7.52081" height="14.4271" transform="matrix(-0.858993 -0.511988 0.46404 -0.885814 36.5808 50.2739)" fill="#9629C4"/>
<rect width="7.52081" height="14.4271" transform="matrix(-0.858993 -0.511988 0.46404 -0.885814 36.5808 65.1953)" fill="#9629C4"/>
<rect width="7.52081" height="14.4271" transform="matrix(-0.858993 -0.511988 0.46404 -0.885814 36.5808 95.0381)" fill="#9629C4"/>
<rect width="7.52081" height="14.4271" transform="matrix(-0.858993 -0.511988 0.46404 -0.885814 36.5808 109.959)" fill="#9629C4"/>
<rect width="7.52081" height="14.4271" transform="matrix(-0.858993 -0.511988 0.46404 -0.885814 21.5806 34.6304)" fill="#9629C4"/>
<rect width="7.52081" height="14.4271" transform="matrix(-0.858993 -0.511988 0.46404 -0.885814 36.5808 50.2739)" fill="#9629C4"/>
<rect width="7.52081" height="14.4271" transform="matrix(-0.858993 -0.511988 0.46404 -0.885814 36.5808 65.1953)" fill="#9629C4"/>
<rect width="7.52081" height="14.4271" transform="matrix(-0.858993 -0.511988 0.46404 -0.885814 186.528 95.2739)" fill="#9629C4"/>
<rect width="7.52081" height="14.4271" transform="matrix(-0.858993 -0.511988 0.46404 -0.885814 36.5808 95.0381)" fill="#9629C4"/>
<rect width="7.52081" height="14.4271" transform="matrix(-0.858993 -0.511988 0.46404 -0.885814 36.5808 109.959)" fill="#9629C4"/>
<rect width="7.52081" height="14.4271" transform="matrix(-0.858993 -0.511988 0.46404 -0.885814 36.2129 125.002)" fill="#9629C4"/>
<rect width="7.52081" height="14.4271" transform="matrix(-0.858993 -0.511988 0.46404 -0.885814 36.5808 139.802)" fill="#9629C4"/>
<rect width="7.52081" height="14.4271" transform="matrix(-0.858993 -0.511988 0.46404 -0.885814 36.5808 154.723)" fill="#9629C4"/>
<rect width="7.52081" height="14.4271" transform="matrix(-0.858993 -0.511988 0.46404 -0.885814 36.5808 169.645)" fill="#9629C4"/>
<rect width="7.52081" height="14.4271" transform="matrix(-0.858993 -0.511988 0.46404 -0.885814 36.2129 125.002)" fill="#9629C4"/>
<rect width="7.52081" height="14.4271" transform="matrix(-0.858993 -0.511988 0.46404 -0.885814 36.5808 139.802)" fill="#9629C4"/>
<rect width="7.52081" height="14.4271" transform="matrix(-0.858993 -0.511988 0.46404 -0.885814 36.5808 154.723)" fill="#9629C4"/>
<rect width="7.52081" height="14.4271" transform="matrix(-0.858993 -0.511988 0.46404 -0.885814 36.5808 169.645)" fill="#9629C4"/>
<rect width="7.52081" height="14.4271" transform="matrix(-0.858993 -0.511988 0.46404 -0.885814 82.3335 111.438)" fill="#F25185"/>
<rect width="7.52081" height="14.4271" transform="matrix(-0.858993 -0.511988 0.46404 -0.885814 82.3335 126.359)" fill="#F25185"/>
<rect width="7.52081" height="14.4271" transform="matrix(-0.858993 -0.511988 0.46404 -0.885814 82.3335 111.438)" fill="#F25185"/>
<rect width="7.52081" height="14.4271" transform="matrix(-0.858993 -0.511988 0.46404 -0.885814 98.6113 78.8818)" fill="#F25185"/>
<rect width="7.52081" height="14.4271" transform="matrix(-0.858993 -0.511988 0.46404 -0.885814 82.3335 126.359)" fill="#F25185"/>
</svg>
