<svg width="312" height="390" viewBox="0 0 312 390" fill="none" xmlns="http://www.w3.org/2000/svg">
<rect width="7.82149" height="15.0039" transform="matrix(-0.858993 -0.511988 0.46404 -0.885814 261.719 316.295)" fill="#9629C4"/>
<rect width="7.82149" height="15.0039" transform="matrix(-0.858993 -0.511988 0.46404 -0.885814 261.719 299.295)" fill="#9629C4"/>
<rect width="8.31479" height="15.9501" transform="matrix(-0.858993 -0.511988 0.46404 -0.885814 196.142 103.386)" fill="#F25185"/>
<rect width="8.31479" height="15.9501" transform="matrix(-0.858993 -0.511988 0.46404 -0.885814 176.142 247.514)" fill="#60B3DC"/>
<rect width="8.31479" height="15.9501" transform="matrix(-0.858993 -0.511988 0.46404 -0.885814 223.142 46.3857)" fill="#FDE12D"/>
<rect width="8.31479" height="15.9501" transform="matrix(-0.858993 -0.511988 0.46404 -0.885814 209.142 246.883)" fill="#FDE12D"/>
<rect width="8.31479" height="15.9501" transform="matrix(-0.858993 -0.511988 0.46404 -0.885814 174.142 192.386)" fill="#FDE12D"/>
<rect width="7.82149" height="15.0039" transform="matrix(-0.858993 -0.511988 0.46404 -0.885814 176.719 272.645)" fill="#F25185"/>
<rect width="8.31479" height="15.9501" transform="matrix(-0.858993 -0.511988 0.46404 -0.885814 165.142 53.3862)" fill="#60B3DC"/>
<rect width="8.31479" height="15.9501" transform="matrix(-0.858993 -0.511988 0.46404 -0.885814 209.142 230.386)" fill="#FDE12D"/>
<rect width="8.31479" height="15.9501" transform="matrix(-0.858993 -0.511988 0.46404 -0.885814 183.142 79.3862)" fill="#9B62DF"/>
<rect width="7.82149" height="15.0039" transform="matrix(-0.858993 -0.511988 0.46404 -0.885814 101.236 191.706)" fill="#F25185"/>
<rect width="7.82149" height="15.0039" transform="matrix(-0.858993 -0.511988 0.46404 -0.885814 101.236 207.224)" fill="#F25185"/>
<rect width="7.82149" height="15.0039" transform="matrix(-0.858993 -0.511988 0.46404 -0.885814 101.236 191.706)" fill="#F25185"/>
<rect width="7.82149" height="15.0039" transform="matrix(-0.858993 -0.511988 0.46404 -0.885814 101.236 207.224)" fill="#F25185"/>
<rect width="7.82149" height="15.0039" transform="matrix(-0.858993 -0.511988 0.46404 -0.885814 84.308 191.706)" fill="#9629C4"/>
<rect width="7.82149" height="15.0039" transform="matrix(-0.858993 -0.511988 0.46404 -0.885814 84.308 207.224)" fill="#9629C4"/>
<rect width="7.82149" height="15.0039" transform="matrix(-0.858993 -0.511988 0.46404 -0.885814 84.308 191.706)" fill="#9629C4"/>
<rect width="7.82149" height="15.0039" transform="matrix(-0.858993 -0.511988 0.46404 -0.885814 53.2723 190.295)" fill="#F25185"/>
<rect width="7.82149" height="15.0039" transform="matrix(-0.858993 -0.511988 0.46404 -0.885814 68.7899 190.295)" fill="#F25185"/>
<rect width="7.82149" height="15.0039" transform="matrix(-0.858993 -0.511988 0.46404 -0.885814 53.2723 238.26)" fill="#F25185"/>
<rect width="7.82149" height="15.0039" transform="matrix(-0.858993 -0.511988 0.46404 -0.885814 84.308 207.224)" fill="#9629C4"/>
<rect width="7.82149" height="15.0039" transform="matrix(-0.858993 -0.511988 0.46404 -0.885814 101.235 222.742)" fill="#60B3DC"/>
<rect width="7.82149" height="15.0039" transform="matrix(-0.858993 -0.511988 0.46404 -0.885814 101.235 238.26)" fill="#60B3DC"/>
<rect width="7.82149" height="15.0039" transform="matrix(-0.858993 -0.511988 0.46404 -0.885814 101.235 222.742)" fill="#60B3DC"/>
<rect width="7.82149" height="15.0039" transform="matrix(-0.858993 -0.511988 0.46404 -0.885814 101.235 238.26)" fill="#60B3DC"/>
<rect width="7.82149" height="15.0039" transform="matrix(-0.858993 -0.511988 0.46404 -0.885814 84.3065 222.742)" fill="#F25185"/>
<rect width="7.82149" height="15.0039" transform="matrix(-0.858993 -0.511988 0.46404 -0.885814 84.3065 238.26)" fill="#F25185"/>
<rect width="7.82149" height="15.0039" transform="matrix(-0.858993 -0.511988 0.46404 -0.885814 84.3065 222.742)" fill="#F25185"/>
<rect width="7.82149" height="15.0039" transform="matrix(-0.858993 -0.511988 0.46404 -0.885814 84.3065 238.26)" fill="#F25185"/>
<rect width="7.82149" height="15.0039" transform="matrix(-0.858993 -0.511988 0.46404 -0.885814 37.7557 191.706)" fill="#60B3DC"/>
<rect width="7.82149" height="15.0039" transform="matrix(-0.858993 -0.511988 0.46404 -0.885814 37.7557 207.224)" fill="#60B3DC"/>
<rect width="7.82149" height="15.0039" transform="matrix(-0.858993 -0.511988 0.46404 -0.885814 37.7557 191.706)" fill="#60B3DC"/>
<rect width="7.82149" height="15.0039" transform="matrix(-0.858993 -0.511988 0.46404 -0.885814 37.7557 207.224)" fill="#60B3DC"/>
<rect width="7.82149" height="15.0039" transform="matrix(-0.858993 -0.511988 0.46404 -0.885814 20.827 191.706)" fill="#60B3DC"/>
<rect width="7.82149" height="15.0039" transform="matrix(-0.858993 -0.511988 0.46404 -0.885814 20.827 207.224)" fill="#60B3DC"/>
<rect width="7.82149" height="15.0039" transform="matrix(-0.858993 -0.511988 0.46404 -0.885814 20.827 191.706)" fill="#60B3DC"/>
<rect width="7.82149" height="15.0039" transform="matrix(-0.858993 -0.511988 0.46404 -0.885814 20.827 207.224)" fill="#60B3DC"/>
<rect width="7.82149" height="15.0039" transform="matrix(-0.858993 -0.511988 0.46404 -0.885814 37.7542 222.742)" fill="#F25185"/>
<rect width="7.82149" height="15.0039" transform="matrix(-0.858993 -0.511988 0.46404 -0.885814 37.7542 238.26)" fill="#F25185"/>
<rect width="7.82149" height="15.0039" transform="matrix(-0.858993 -0.511988 0.46404 -0.885814 37.7542 222.742)" fill="#F25185"/>
<rect width="7.82149" height="15.0039" transform="matrix(-0.858993 -0.511988 0.46404 -0.885814 37.7542 238.26)" fill="#F25185"/>
<rect width="7.82149" height="15.0039" transform="matrix(-0.858993 -0.511988 0.46404 -0.885814 20.8255 222.742)" fill="#F25185"/>
<rect width="7.82149" height="15.0039" transform="matrix(-0.858993 -0.511988 0.46404 -0.885814 20.8255 238.26)" fill="#F25185"/>
<rect width="7.82149" height="15.0039" transform="matrix(-0.858993 -0.511988 0.46404 -0.885814 20.8255 222.742)" fill="#F25185"/>
<rect width="7.82149" height="15.0039" transform="matrix(-0.858993 -0.511988 0.46404 -0.885814 20.8255 238.26)" fill="#F25185"/>
<rect width="7.82149" height="15.0039" transform="matrix(-0.858993 -0.511988 0.46404 -0.885814 6.7186 222.742)" fill="#C0A156"/>
<rect width="7.82149" height="15.0039" transform="matrix(-0.858993 -0.511988 0.46404 -0.885814 6.7186 238.26)" fill="#C0A156"/>
<rect width="7.82149" height="15.0039" transform="matrix(-0.858993 -0.511988 0.46404 -0.885814 6.7186 222.742)" fill="#FDE12D"/>
<rect width="7.82149" height="15.0039" transform="matrix(-0.858993 -0.511988 0.46404 -0.885814 6.7186 238.26)" fill="#FDE12D"/>
<rect width="7.82149" height="15.0039" transform="matrix(-0.858993 -0.511988 0.46404 -0.885814 318.308 342.706)" fill="#C0A156"/>
<rect width="7.82149" height="15.0039" transform="matrix(-0.858993 -0.511988 0.46404 -0.885814 318.308 358.224)" fill="#C0A156"/>
<rect width="7.82149" height="15.0039" transform="matrix(-0.858993 -0.511988 0.46404 -0.885814 318.308 373.742)" fill="#C0A156"/>
<rect width="7.82149" height="15.0039" transform="matrix(-0.858993 -0.511988 0.46404 -0.885814 318.308 389.26)" fill="#C0A156"/>
<rect width="7.82149" height="15.0039" transform="matrix(-0.858993 -0.511988 0.46404 -0.885814 318.308 342.706)" fill="#C0A156"/>
<rect width="7.82149" height="15.0039" transform="matrix(-0.858993 -0.511988 0.46404 -0.885814 318.308 358.224)" fill="#C0A156"/>
<rect width="7.82149" height="15.0039" transform="matrix(-0.858993 -0.511988 0.46404 -0.885814 318.308 373.742)" fill="#C0A156"/>
<rect width="7.82149" height="15.0039" transform="matrix(-0.858993 -0.511988 0.46404 -0.885814 318.308 389.26)" fill="#C0A156"/>
<rect width="7.82149" height="15.0039" transform="matrix(-0.858993 -0.511988 0.46404 -0.885814 301.38 342.706)" fill="#9629C4"/>
<rect width="7.82149" height="15.0039" transform="matrix(-0.858993 -0.511988 0.46404 -0.885814 301.38 358.224)" fill="#9629C4"/>
<rect width="7.82149" height="15.0039" transform="matrix(-0.858993 -0.511988 0.46404 -0.885814 301.38 373.742)" fill="#F25185"/>
<rect width="7.82149" height="15.0039" transform="matrix(-0.858993 -0.511988 0.46404 -0.885814 301.38 389.26)" fill="#F25185"/>
<rect width="7.82149" height="15.0039" transform="matrix(-0.858993 -0.511988 0.46404 -0.885814 301.38 342.706)" fill="#9629C4"/>
<rect width="7.82149" height="15.0039" transform="matrix(-0.858993 -0.511988 0.46404 -0.885814 301.38 358.224)" fill="#9629C4"/>
<rect width="7.82149" height="15.0039" transform="matrix(-0.858993 -0.511988 0.46404 -0.885814 301.38 373.742)" fill="#F25185"/>
<rect width="7.82149" height="15.0039" transform="matrix(-0.858993 -0.511988 0.46404 -0.885814 301.38 389.26)" fill="#F25185"/>
<rect width="7.82149" height="15.0039" transform="matrix(-0.858993 -0.511988 0.46404 -0.885814 206.862 358.224)" fill="#9629C4"/>
<rect width="7.82149" height="15.0039" transform="matrix(-0.858993 -0.511988 0.46404 -0.885814 206.862 373.742)" fill="#9629C4"/>
<rect width="7.82149" height="15.0039" transform="matrix(-0.858993 -0.511988 0.46404 -0.885814 206.862 389.26)" fill="#9629C4"/>
<rect width="7.82149" height="15.0039" transform="matrix(-0.858993 -0.511988 0.46404 -0.885814 206.862 358.224)" fill="#9629C4"/>
<rect width="7.82149" height="15.0039" transform="matrix(-0.858993 -0.511988 0.46404 -0.885814 206.862 373.742)" fill="#9629C4"/>
<rect width="7.82149" height="15.0039" transform="matrix(-0.858993 -0.511988 0.46404 -0.885814 206.862 389.26)" fill="#9629C4"/>
<rect width="7.82149" height="15.0039" transform="matrix(-0.858993 -0.511988 0.46404 -0.885814 160.308 342.706)" fill="#C0A156"/>
<rect width="7.82149" height="15.0039" transform="matrix(-0.858993 -0.511988 0.46404 -0.885814 160.308 358.224)" fill="#C0A156"/>
<rect width="7.82149" height="15.0039" transform="matrix(-0.858993 -0.511988 0.46404 -0.885814 160.308 373.742)" fill="#F25185"/>
<rect width="7.82149" height="15.0039" transform="matrix(-0.858993 -0.511988 0.46404 -0.885814 160.308 389.26)" fill="#F25185"/>
<rect width="7.82149" height="15.0039" transform="matrix(-0.858993 -0.511988 0.46404 -0.885814 160.308 342.706)" fill="#FDE12D"/>
<rect width="7.82149" height="15.0039" transform="matrix(-0.858993 -0.511988 0.46404 -0.885814 160.308 358.224)" fill="#FDE12D"/>
<rect width="7.82149" height="15.0039" transform="matrix(-0.858993 -0.511988 0.46404 -0.885814 160.308 373.742)" fill="#F25185"/>
<rect width="7.82149" height="15.0039" transform="matrix(-0.858993 -0.511988 0.46404 -0.885814 160.308 389.26)" fill="#F25185"/>
<rect width="7.82149" height="15.0039" transform="matrix(-0.858993 -0.511988 0.46404 -0.885814 144.79 342.706)" fill="#F25185"/>
<rect width="7.82149" height="15.0039" transform="matrix(-0.858993 -0.511988 0.46404 -0.885814 144.79 373.742)" fill="#60B3DC"/>
<rect width="7.82149" height="15.0039" transform="matrix(-0.858993 -0.511988 0.46404 -0.885814 144.79 389.26)" fill="#60B3DC"/>
<rect width="7.82149" height="15.0039" transform="matrix(-0.858993 -0.511988 0.46404 -0.885814 144.79 342.706)" fill="#F25185"/>
<rect width="7.82149" height="15.0039" transform="matrix(-0.858993 -0.511988 0.46404 -0.885814 144.79 373.742)" fill="#60B3DC"/>
<rect width="7.82149" height="15.0039" transform="matrix(-0.858993 -0.511988 0.46404 -0.885814 144.79 389.26)" fill="#60B3DC"/>
<rect width="7.82149" height="15.0039" transform="matrix(-0.858993 -0.511988 0.46404 -0.885814 129.272 342.706)" fill="#F25185"/>
<rect width="7.82149" height="15.0039" transform="matrix(-0.858993 -0.511988 0.46404 -0.885814 129.272 358.224)" fill="#F25185"/>
<rect width="7.82149" height="15.0039" transform="matrix(-0.858993 -0.511988 0.46404 -0.885814 129.272 373.742)" fill="#60B3DC"/>
<rect width="7.82149" height="15.0039" transform="matrix(-0.858993 -0.511988 0.46404 -0.885814 129.272 389.26)" fill="#60B3DC"/>
<rect width="7.82149" height="15.0039" transform="matrix(-0.858993 -0.511988 0.46404 -0.885814 129.272 342.706)" fill="#F25185"/>
<rect width="7.82149" height="15.0039" transform="matrix(-0.858993 -0.511988 0.46404 -0.885814 129.272 358.224)" fill="#F25185"/>
<rect width="7.82149" height="15.0039" transform="matrix(-0.858993 -0.511988 0.46404 -0.885814 129.272 373.742)" fill="#60B3DC"/>
<rect width="7.82149" height="15.0039" transform="matrix(-0.858993 -0.511988 0.46404 -0.885814 129.272 389.26)" fill="#60B3DC"/>
<rect width="7.82149" height="15.0039" transform="matrix(-0.858993 -0.511988 0.46404 -0.885814 113.754 342.706)" fill="#F25185"/>
<rect width="7.82149" height="15.0039" transform="matrix(-0.858993 -0.511988 0.46404 -0.885814 113.754 358.224)" fill="#F25185"/>
<rect width="7.82149" height="15.0039" transform="matrix(-0.858993 -0.511988 0.46404 -0.885814 113.754 342.706)" fill="#F25185"/>
<rect width="7.82149" height="15.0039" transform="matrix(-0.858993 -0.511988 0.46404 -0.885814 113.754 358.224)" fill="#F25185"/>
<rect width="7.82149" height="15.0039" transform="matrix(-0.858993 -0.511988 0.46404 -0.885814 113.753 373.742)" fill="#60B3DC"/>
<rect width="7.82149" height="15.0039" transform="matrix(-0.858993 -0.511988 0.46404 -0.885814 113.753 389.26)" fill="#60B3DC"/>
<rect width="7.82149" height="15.0039" transform="matrix(-0.858993 -0.511988 0.46404 -0.885814 113.753 373.742)" fill="#60B3DC"/>
<rect width="7.82149" height="15.0039" transform="matrix(-0.858993 -0.511988 0.46404 -0.885814 175.826 342.706)" fill="#FDE12D"/>
<rect width="7.82149" height="15.0039" transform="matrix(-0.858993 -0.511988 0.46404 -0.885814 175.826 358.224)" fill="#C0A156"/>
<rect width="7.82149" height="15.0039" transform="matrix(-0.858993 -0.511988 0.46404 -0.885814 175.826 373.742)" fill="#F25185"/>
<rect width="7.82149" height="15.0039" transform="matrix(-0.858993 -0.511988 0.46404 -0.885814 175.826 389.26)" fill="#F25185"/>
<rect width="7.82149" height="15.0039" transform="matrix(-0.858993 -0.511988 0.46404 -0.885814 175.826 358.224)" fill="#FDE12D"/>
<rect width="7.82149" height="15.0039" transform="matrix(-0.858993 -0.511988 0.46404 -0.885814 175.826 373.742)" fill="#F25185"/>
<rect width="7.82149" height="15.0039" transform="matrix(-0.858993 -0.511988 0.46404 -0.885814 175.826 389.26)" fill="#F25185"/>
<rect width="7.82149" height="15.0039" transform="matrix(-0.858993 -0.511988 0.46404 -0.885814 192.754 342.706)" fill="#9629C4"/>
<rect width="7.82149" height="15.0039" transform="matrix(-0.858993 -0.511988 0.46404 -0.885814 192.754 358.224)" fill="#9629C4"/>
<rect width="7.82149" height="15.0039" transform="matrix(-0.858993 -0.511988 0.46404 -0.885814 192.754 373.742)" fill="#9629C4"/>
<rect width="7.82149" height="15.0039" transform="matrix(-0.858993 -0.511988 0.46404 -0.885814 192.754 342.706)" fill="#9629C4"/>
<rect width="7.82149" height="15.0039" transform="matrix(-0.858993 -0.511988 0.46404 -0.885814 192.754 358.224)" fill="#9629C4"/>
<rect width="7.82149" height="15.0039" transform="matrix(-0.858993 -0.511988 0.46404 -0.885814 192.754 373.742)" fill="#9629C4"/>
<rect width="7.82149" height="15.0039" transform="matrix(-0.858993 -0.511988 0.46404 -0.885814 285.862 373.742)" fill="#60B3DC"/>
<rect width="7.82149" height="15.0039" transform="matrix(-0.858993 -0.511988 0.46404 -0.885814 285.862 389.26)" fill="#60B3DC"/>
<rect width="7.82149" height="15.0039" transform="matrix(-0.858993 -0.511988 0.46404 -0.885814 285.862 373.742)" fill="#60B3DC"/>
<rect width="7.82149" height="15.0039" transform="matrix(-0.858993 -0.511988 0.46404 -0.885814 285.862 389.26)" fill="#60B3DC"/>
<rect width="7.82149" height="15.0039" transform="matrix(-0.858993 -0.511988 0.46404 -0.885814 270.344 373.742)" fill="#F25185"/>
<rect width="7.82149" height="15.0039" transform="matrix(-0.858993 -0.511988 0.46404 -0.885814 270.344 389.26)" fill="#F25185"/>
<rect width="7.82149" height="15.0039" transform="matrix(-0.858993 -0.511988 0.46404 -0.885814 270.344 373.742)" fill="#F25185"/>
<rect width="7.82149" height="15.0039" transform="matrix(-0.858993 -0.511988 0.46404 -0.885814 270.344 389.26)" fill="#F25185"/>
<rect width="7.82149" height="15.0039" transform="matrix(-0.858993 -0.511988 0.46404 -0.885814 254.826 373.742)" fill="#60B3DC"/>
<rect width="7.82149" height="15.0039" transform="matrix(-0.858993 -0.511988 0.46404 -0.885814 254.826 389.26)" fill="#60B3DC"/>
<rect width="7.82149" height="15.0039" transform="matrix(-0.858993 -0.511988 0.46404 -0.885814 254.826 373.742)" fill="#60B3DC"/>
<rect width="7.82149" height="15.0039" transform="matrix(-0.858993 -0.511988 0.46404 -0.885814 254.826 389.26)" fill="#60B3DC"/>
<rect width="7.82149" height="15.0039" transform="matrix(-0.858993 -0.511988 0.46404 -0.885814 239.308 373.742)" fill="#60B3DC"/>
<rect width="7.82149" height="15.0039" transform="matrix(-0.858993 -0.511988 0.46404 -0.885814 239.308 389.26)" fill="#60B3DC"/>
<rect width="7.82149" height="15.0039" transform="matrix(-0.858993 -0.511988 0.46404 -0.885814 239.308 373.742)" fill="#60B3DC"/>
<rect width="7.82149" height="15.0039" transform="matrix(-0.858993 -0.511988 0.46404 -0.885814 239.308 389.26)" fill="#60B3DC"/>
<rect width="7.82149" height="15.0039" transform="matrix(-0.858993 -0.511988 0.46404 -0.885814 222.379 373.742)" fill="#F25185"/>
<rect width="7.82149" height="15.0039" transform="matrix(-0.858993 -0.511988 0.46404 -0.885814 222.379 389.26)" fill="#F25185"/>
<rect width="7.82149" height="15.0039" transform="matrix(-0.858993 -0.511988 0.46404 -0.885814 222.379 373.742)" fill="#F25185"/>
<rect width="7.82149" height="15.0039" transform="matrix(-0.858993 -0.511988 0.46404 -0.885814 222.379 389.26)" fill="#F25185"/>
<rect width="7.82149" height="15.0039" transform="matrix(-0.858993 -0.511988 0.46404 -0.885814 105.719 83.2951)" fill="#F25185"/>
<rect width="8.31479" height="15.9501" transform="matrix(-0.858993 -0.511988 0.46404 -0.885814 106.549 18.3859)" fill="#C0A156"/>
<rect width="8.31479" height="15.9501" transform="matrix(-0.858993 -0.511988 0.46404 -0.885814 106.549 34.883)" fill="#C0A156"/>
<rect width="8.31479" height="15.9501" transform="matrix(-0.858993 -0.511988 0.46404 -0.885814 106.549 51.3796)" fill="#C0A156"/>
<rect width="8.31479" height="15.9501" transform="matrix(-0.858993 -0.511988 0.46404 -0.885814 106.142 68.0109)" fill="#C0A156"/>
<rect width="8.31479" height="15.9501" transform="matrix(-0.858993 -0.511988 0.46404 -0.885814 106.549 18.3859)" fill="#FDE12D"/>
<rect width="8.31479" height="15.9501" transform="matrix(-0.858993 -0.511988 0.46404 -0.885814 106.549 34.883)" fill="#FDE12D"/>
<rect width="8.31479" height="15.9501" transform="matrix(-0.858993 -0.511988 0.46404 -0.885814 106.549 51.3796)" fill="#FDE12D"/>
<rect width="8.31479" height="15.9501" transform="matrix(-0.858993 -0.511988 0.46404 -0.885814 121.546 18.3859)" fill="#C0A156"/>
<rect width="8.31479" height="15.9501" transform="matrix(-0.858993 -0.511988 0.46404 -0.885814 121.546 34.883)" fill="#C0A156"/>
<rect width="8.31479" height="15.9501" transform="matrix(-0.858993 -0.511988 0.46404 -0.885814 121.139 51.5143)" fill="#FDE12D"/>
<rect width="8.31479" height="15.9501" transform="matrix(-0.858993 -0.511988 0.46404 -0.885814 121.546 18.3859)" fill="#FDE12D"/>
<rect width="8.31479" height="15.9501" transform="matrix(-0.858993 -0.511988 0.46404 -0.885814 121.546 34.883)" fill="#FDE12D"/>
<rect width="8.31479" height="15.9501" transform="matrix(-0.858993 -0.511988 0.46404 -0.885814 138.042 18.3859)" fill="#F25185"/>
<rect width="8.31479" height="15.9501" transform="matrix(-0.858993 -0.511988 0.46404 -0.885814 138.042 34.883)" fill="#F25185"/>
<rect width="8.31479" height="15.9501" transform="matrix(-0.858993 -0.511988 0.46404 -0.885814 137.636 51.5143)" fill="#F25185"/>
<rect width="8.31479" height="15.9501" transform="matrix(-0.858993 -0.511988 0.46404 -0.885814 138.042 18.3859)" fill="#F25185"/>
<rect width="8.31479" height="15.9501" transform="matrix(-0.858993 -0.511988 0.46404 -0.885814 138.042 34.883)" fill="#F25185"/>
<rect width="8.31479" height="15.9501" transform="matrix(-0.858993 -0.511988 0.46404 -0.885814 278.045 86.3823)" fill="#F25185"/>
<rect width="8.31479" height="15.9501" transform="matrix(-0.858993 -0.511988 0.46404 -0.885814 278.045 102.879)" fill="#F25185"/>
<rect width="8.31479" height="15.9501" transform="matrix(-0.858993 -0.511988 0.46404 -0.885814 278.045 119.375)" fill="#9629C4"/>
<rect width="8.31479" height="15.9501" transform="matrix(-0.858993 -0.511988 0.46404 -0.885814 278.045 135.872)" fill="#9629C4"/>
<rect width="8.31479" height="15.9501" transform="matrix(-0.858993 -0.511988 0.46404 -0.885814 277.638 152.503)" fill="#9629C4"/>
<rect width="8.31479" height="15.9501" transform="matrix(-0.858993 -0.511988 0.46404 -0.885814 278.045 86.3823)" fill="#F25185"/>
<rect width="8.31479" height="15.9501" transform="matrix(-0.858993 -0.511988 0.46404 -0.885814 278.045 102.879)" fill="#F25185"/>
<rect width="8.31479" height="15.9501" transform="matrix(-0.858993 -0.511988 0.46404 -0.885814 278.045 119.375)" fill="#9629C4"/>
<rect width="8.31479" height="15.9501" transform="matrix(-0.858993 -0.511988 0.46404 -0.885814 278.045 135.872)" fill="#9629C4"/>
<rect width="8.31479" height="15.9501" transform="matrix(-0.858993 -0.511988 0.46404 -0.885814 261.549 84.8828)" fill="#60B3DC"/>
<rect width="8.31479" height="15.9501" transform="matrix(-0.858993 -0.511988 0.46404 -0.885814 261.549 101.379)" fill="#60B3DC"/>
<rect width="8.31479" height="15.9501" transform="matrix(-0.858993 -0.511988 0.46404 -0.885814 261.549 117.876)" fill="#60B3DC"/>
<rect width="8.31479" height="15.9501" transform="matrix(-0.858993 -0.511988 0.46404 -0.885814 261.549 134.372)" fill="#60B3DC"/>
<rect width="8.31479" height="15.9501" transform="matrix(-0.858993 -0.511988 0.46404 -0.885814 261.142 151.004)" fill="#60B3DC"/>
<rect width="8.31479" height="15.9501" transform="matrix(-0.858993 -0.511988 0.46404 -0.885814 261.549 84.8828)" fill="#60B3DC"/>
<rect width="8.31479" height="15.9501" transform="matrix(-0.858993 -0.511988 0.46404 -0.885814 261.142 68.3857)" fill="#60B3DC"/>
<rect width="8.31479" height="15.9501" transform="matrix(-0.858993 -0.511988 0.46404 -0.885814 261.549 101.379)" fill="#60B3DC"/>
<rect width="8.31479" height="15.9501" transform="matrix(-0.858993 -0.511988 0.46404 -0.885814 261.549 117.876)" fill="#60B3DC"/>
<rect width="8.31479" height="15.9501" transform="matrix(-0.858993 -0.511988 0.46404 -0.885814 261.549 134.372)" fill="#60B3DC"/>
<rect width="8.31479" height="15.9501" transform="matrix(-0.858993 -0.511988 0.46404 -0.885814 293.042 102.879)" fill="#F25185"/>
<rect width="8.31479" height="15.9501" transform="matrix(-0.858993 -0.511988 0.46404 -0.885814 293.042 119.375)" fill="#9629C4"/>
<rect width="8.31479" height="15.9501" transform="matrix(-0.858993 -0.511988 0.46404 -0.885814 293.042 135.872)" fill="#9629C4"/>
<rect width="8.31479" height="15.9501" transform="matrix(-0.858993 -0.511988 0.46404 -0.885814 292.635 152.503)" fill="#9629C4"/>
<rect width="8.31479" height="15.9501" transform="matrix(-0.858993 -0.511988 0.46404 -0.885814 293.042 102.879)" fill="#F25185"/>
<rect width="8.31479" height="15.9501" transform="matrix(-0.858993 -0.511988 0.46404 -0.885814 293.042 119.375)" fill="#9629C4"/>
<rect width="8.31479" height="15.9501" transform="matrix(-0.858993 -0.511988 0.46404 -0.885814 293.042 135.872)" fill="#9629C4"/>
<rect width="8.31479" height="15.9501" transform="matrix(-0.858993 -0.511988 0.46404 -0.885814 309.539 119.375)" fill="#9629C4"/>
<rect width="8.31479" height="15.9501" transform="matrix(-0.858993 -0.511988 0.46404 -0.885814 309.539 135.872)" fill="#9629C4"/>
<rect width="8.31479" height="15.9501" transform="matrix(-0.858993 -0.511988 0.46404 -0.885814 309.133 152.503)" fill="#9629C4"/>
<rect width="8.31479" height="15.9501" transform="matrix(-0.858993 -0.511988 0.46404 -0.885814 309.539 119.375)" fill="#9629C4"/>
<rect width="8.31479" height="15.9501" transform="matrix(-0.858993 -0.511988 0.46404 -0.885814 309.539 135.872)" fill="#9629C4"/>
</svg>
