<svg width="125" height="139" viewBox="0 0 125 139" fill="none" xmlns="http://www.w3.org/2000/svg">
<rect width="7.11427" height="13.6472" transform="matrix(-0.858993 -0.511988 0.46404 -0.885814 6.11108 28.0146)" fill="#F25185"/>
<rect width="7.11427" height="13.6472" transform="matrix(-0.858993 -0.511988 0.46404 -0.885814 18.9426 28.0146)" fill="#60B3DC"/>
<rect width="7.11427" height="13.6472" transform="matrix(-0.858993 -0.511988 0.46404 -0.885814 34.3408 26.7314)" fill="#C0A156"/>
<rect width="7.11427" height="13.6472" transform="matrix(-0.858993 -0.511988 0.46404 -0.885814 47.1724 26.7314)" fill="#F25185"/>
<rect width="7.11427" height="13.6472" transform="matrix(-0.858993 -0.511988 0.46404 -0.885814 60.0039 26.7314)" fill="#9629C4"/>
<rect width="7.11427" height="13.6472" transform="matrix(-0.858993 -0.511988 0.46404 -0.885814 72.8354 26.7314)" fill="#C0A156"/>
<rect width="7.11427" height="13.6472" transform="matrix(-0.858993 -0.511988 0.46404 -0.885814 85.6672 26.7314)" fill="#F25185"/>
<rect width="7.11427" height="13.6472" transform="matrix(-0.858993 -0.511988 0.46404 -0.885814 6.11108 43.0791)" fill="#F25185"/>
<rect width="7.11427" height="13.6472" transform="matrix(-0.858993 -0.511988 0.46404 -0.885814 18.9426 43.0791)" fill="#60B3DC"/>
<rect width="7.11427" height="13.6472" transform="matrix(-0.858993 -0.511988 0.46404 -0.885814 34.3408 41.7959)" fill="#C0A156"/>
<rect width="7.11427" height="13.6472" transform="matrix(-0.858993 -0.511988 0.46404 -0.885814 47.1724 41.7959)" fill="#F25185"/>
<rect width="7.11427" height="13.6472" transform="matrix(-0.858993 -0.511988 0.46404 -0.885814 60.0039 41.7959)" fill="#9629C4"/>
<rect width="7.11427" height="13.6472" transform="matrix(-0.858993 -0.511988 0.46404 -0.885814 72.8354 41.7959)" fill="#C0A156"/>
<rect width="7.11427" height="13.6472" transform="matrix(-0.858993 -0.511988 0.46404 -0.885814 85.6672 41.7959)" fill="#F25185"/>
<rect width="7.52081" height="14.4271" transform="matrix(-0.858993 -0.511988 0.46404 -0.885814 97.4602 77.6304)" fill="#60B3DC"/>
<rect width="7.52081" height="14.4271" transform="matrix(-0.858993 -0.511988 0.46404 -0.885814 117.46 16.6304)" fill="#F25185"/>
<rect width="7.52081" height="14.4271" transform="matrix(-0.858993 -0.511988 0.46404 -0.885814 42.4602 138.63)" fill="#60B3DC"/>
<rect width="7.52081" height="14.4271" transform="matrix(-0.858993 -0.511988 0.46404 -0.885814 62.4602 77.6304)" fill="#F25185"/>
</svg>
