<svg width="193" height="217" viewBox="0 0 193 217" fill="none" xmlns="http://www.w3.org/2000/svg">
<rect width="7.52081" height="14.4271" transform="matrix(-0.858993 -0.511988 0.46404 -0.885814 93.1458 33.9449)" fill="#C0A156"/>
<rect width="7.52081" height="14.4271" transform="matrix(-0.858993 -0.511988 0.46404 -0.885814 108.146 49.5885)" fill="#C0A156"/>
<rect width="7.52081" height="14.4271" transform="matrix(-0.858993 -0.511988 0.46404 -0.885814 108.146 64.5099)" fill="#C0A156"/>
<rect width="7.52081" height="14.4271" transform="matrix(-0.858993 -0.511988 0.46404 -0.885814 108.146 79.4313)" fill="#C0A156"/>
<rect width="7.52081" height="14.4271" transform="matrix(-0.858993 -0.511988 0.46404 -0.885814 108.146 94.3527)" fill="#C0A156"/>
<rect width="7.52081" height="14.4271" transform="matrix(-0.858993 -0.511988 0.46404 -0.885814 108.146 109.274)" fill="#C0A156"/>
<rect width="7.52081" height="14.4271" transform="matrix(-0.858993 -0.511988 0.46404 -0.885814 93.1458 33.9449)" fill="#FDE12D"/>
<rect width="7.52081" height="14.4271" transform="matrix(-0.858993 -0.511988 0.46404 -0.885814 108.146 49.5885)" fill="#FDE12D"/>
<rect width="7.52081" height="14.4271" transform="matrix(-0.858993 -0.511988 0.46404 -0.885814 108.146 64.5099)" fill="#FDE12D"/>
<rect width="7.52081" height="14.4271" transform="matrix(-0.858993 -0.511988 0.46404 -0.885814 108.146 79.4313)" fill="#FDE12D"/>
<rect width="7.52081" height="14.4271" transform="matrix(-0.858993 -0.511988 0.46404 -0.885814 108.146 94.3527)" fill="#FDE12D"/>
<rect width="7.52081" height="14.4271" transform="matrix(-0.858993 -0.511988 0.46404 -0.885814 108.146 109.274)" fill="#FDE12D"/>
<rect width="7.52081" height="14.4271" transform="matrix(-0.858993 -0.511988 0.46404 -0.885814 108.067 33.9449)" fill="#96E489"/>
<rect width="7.52081" height="14.4271" transform="matrix(-0.858993 -0.511988 0.46404 -0.885814 123.067 49.5885)" fill="#F25185"/>
<rect width="7.52081" height="14.4271" transform="matrix(-0.858993 -0.511988 0.46404 -0.885814 123.067 64.5099)" fill="#F25185"/>
<rect width="7.52081" height="14.4271" transform="matrix(-0.858993 -0.511988 0.46404 -0.885814 123.067 79.4313)" fill="#F25185"/>
<rect width="7.52081" height="14.4271" transform="matrix(-0.858993 -0.511988 0.46404 -0.885814 123.067 94.3527)" fill="#F25185"/>
<rect width="7.52081" height="14.4271" transform="matrix(-0.858993 -0.511988 0.46404 -0.885814 123.067 109.274)" fill="#F25185"/>
<rect width="7.52081" height="14.4271" transform="matrix(-0.858993 -0.511988 0.46404 -0.885814 108.067 33.9449)" fill="#F25185"/>
<rect width="7.52081" height="14.4271" transform="matrix(-0.858993 -0.511988 0.46404 -0.885814 123.067 49.5885)" fill="#F25185"/>
<rect width="7.52081" height="14.4271" transform="matrix(-0.858993 -0.511988 0.46404 -0.885814 123.067 64.5099)" fill="#F25185"/>
<rect width="7.52081" height="14.4271" transform="matrix(-0.858993 -0.511988 0.46404 -0.885814 123.067 79.4313)" fill="#F25185"/>
<rect width="7.52081" height="14.4271" transform="matrix(-0.858993 -0.511988 0.46404 -0.885814 123.067 94.3527)" fill="#F25185"/>
<rect width="7.52081" height="14.4271" transform="matrix(-0.858993 -0.511988 0.46404 -0.885814 123.067 109.274)" fill="#F25185"/>
<rect width="7.52081" height="14.4271" transform="matrix(-0.858993 -0.511988 0.46404 -0.885814 6.828 16.6302)" fill="#96E489"/>
<rect width="7.52081" height="14.4271" transform="matrix(-0.858993 -0.511988 0.46404 -0.885814 6.828 16.6302)" fill="#96E489"/>
<rect width="7.52081" height="14.4271" transform="matrix(-0.858993 -0.511988 0.46404 -0.885814 6.46033 31.6735)" fill="#96E489"/>
<rect width="7.52081" height="14.4271" transform="matrix(-0.858993 -0.511988 0.46404 -0.885814 6.828 46.473)" fill="#C0A156"/>
<rect width="7.52081" height="14.4271" transform="matrix(-0.858993 -0.511988 0.46404 -0.885814 6.828 61.3942)" fill="#C0A156"/>
<rect width="7.52081" height="14.4271" transform="matrix(-0.858993 -0.511988 0.46404 -0.885814 6.828 76.3156)" fill="#C0A156"/>
<rect width="7.52081" height="14.4271" transform="matrix(-0.858993 -0.511988 0.46404 -0.885814 6.46033 31.6735)" fill="#C0A156"/>
<rect width="7.52081" height="14.4271" transform="matrix(-0.858993 -0.511988 0.46404 -0.885814 6.828 46.473)" fill="#C0A156"/>
<rect width="7.52081" height="14.4271" transform="matrix(-0.858993 -0.511988 0.46404 -0.885814 6.828 61.3942)" fill="#C0A156"/>
<rect width="7.52081" height="14.4271" transform="matrix(-0.858993 -0.511988 0.46404 -0.885814 6.828 76.3156)" fill="#C0A156"/>
<rect width="7.52081" height="14.4271" transform="matrix(-0.858993 -0.511988 0.46404 -0.885814 20.3929 16.6302)" fill="#96E489"/>
<rect width="7.52081" height="14.4271" transform="matrix(-0.858993 -0.511988 0.46404 -0.885814 20.3929 16.6302)" fill="#96E489"/>
<rect width="7.52081" height="14.4271" transform="matrix(-0.858993 -0.511988 0.46404 -0.885814 20.0253 31.6735)" fill="#96E489"/>
<rect width="7.52081" height="14.4271" transform="matrix(-0.858993 -0.511988 0.46404 -0.885814 20.3929 46.473)" fill="#96E489"/>
<rect width="7.52081" height="14.4271" transform="matrix(-0.858993 -0.511988 0.46404 -0.885814 20.3929 61.3942)" fill="#96E489"/>
<rect width="7.52081" height="14.4271" transform="matrix(-0.858993 -0.511988 0.46404 -0.885814 20.3929 76.3156)" fill="#96E489"/>
<rect width="7.52081" height="14.4271" transform="matrix(-0.858993 -0.511988 0.46404 -0.885814 20.0253 31.6735)" fill="#96E489"/>
<rect width="7.52081" height="14.4271" transform="matrix(-0.858993 -0.511988 0.46404 -0.885814 20.3929 46.473)" fill="#96E489"/>
<rect width="7.52081" height="14.4271" transform="matrix(-0.858993 -0.511988 0.46404 -0.885814 20.3929 61.3942)" fill="#96E489"/>
<rect width="7.52081" height="14.4271" transform="matrix(-0.858993 -0.511988 0.46404 -0.885814 20.3929 76.3156)" fill="#96E489"/>
<rect width="7.52081" height="14.4271" transform="matrix(-0.858993 -0.511988 0.46404 -0.885814 34.8954 49.5885)" fill="#60B3DC"/>
<rect width="7.52081" height="14.4271" transform="matrix(-0.858993 -0.511988 0.46404 -0.885814 34.8954 64.5099)" fill="#60B3DC"/>
<rect width="7.52081" height="14.4271" transform="matrix(-0.858993 -0.511988 0.46404 -0.885814 34.8954 79.4313)" fill="#60B3DC"/>
<rect width="7.52081" height="14.4271" transform="matrix(-0.858993 -0.511988 0.46404 -0.885814 34.8954 94.3527)" fill="#60B3DC"/>
<rect width="7.52081" height="14.4271" transform="matrix(-0.858993 -0.511988 0.46404 -0.885814 34.8954 109.274)" fill="#60B3DC"/>
<rect width="7.52081" height="14.4271" transform="matrix(-0.858993 -0.511988 0.46404 -0.885814 34.8954 49.5885)" fill="#60B3DC"/>
<rect width="7.52081" height="14.4271" transform="matrix(-0.858993 -0.511988 0.46404 -0.885814 34.8954 64.5099)" fill="#60B3DC"/>
<rect width="7.52081" height="14.4271" transform="matrix(-0.858993 -0.511988 0.46404 -0.885814 34.8954 79.4313)" fill="#60B3DC"/>
<rect width="7.52081" height="14.4271" transform="matrix(-0.858993 -0.511988 0.46404 -0.885814 34.8954 94.3527)" fill="#60B3DC"/>
<rect width="7.52081" height="14.4271" transform="matrix(-0.858993 -0.511988 0.46404 -0.885814 34.8954 109.274)" fill="#60B3DC"/>
<rect width="7.52081" height="14.4271" transform="matrix(-0.858993 -0.511988 0.46404 -0.885814 34.5277 124.317)" fill="#9B62DF"/>
<rect width="7.52081" height="14.4271" transform="matrix(-0.858993 -0.511988 0.46404 -0.885814 34.8954 139.117)" fill="#9B62DF"/>
<rect width="7.52081" height="14.4271" transform="matrix(-0.858993 -0.511988 0.46404 -0.885814 34.8954 154.038)" fill="#9B62DF"/>
<rect width="7.52081" height="14.4271" transform="matrix(-0.858993 -0.511988 0.46404 -0.885814 34.8954 168.959)" fill="#9B62DF"/>
<rect width="7.52081" height="14.4271" transform="matrix(-0.858993 -0.511988 0.46404 -0.885814 34.5277 124.317)" fill="#9B62DF"/>
<rect width="7.52081" height="14.4271" transform="matrix(-0.858993 -0.511988 0.46404 -0.885814 34.8954 139.117)" fill="#9B62DF"/>
<rect width="7.52081" height="14.4271" transform="matrix(-0.858993 -0.511988 0.46404 -0.885814 34.8954 154.038)" fill="#9B62DF"/>
<rect width="7.52081" height="14.4271" transform="matrix(-0.858993 -0.511988 0.46404 -0.885814 34.8954 168.959)" fill="#9B62DF"/>
<rect width="7.52081" height="14.4271" transform="matrix(-0.858993 -0.511988 0.46404 -0.885814 33.4604 33.9449)" fill="#C0A156"/>
<rect width="7.52081" height="14.4271" transform="matrix(-0.858993 -0.511988 0.46404 -0.885814 48.4603 49.5885)" fill="#60B3DC"/>
<rect width="7.52081" height="14.4271" transform="matrix(-0.858993 -0.511988 0.46404 -0.885814 48.4603 64.5099)" fill="#60B3DC"/>
<rect width="7.52081" height="14.4271" transform="matrix(-0.858993 -0.511988 0.46404 -0.885814 48.4603 79.4313)" fill="#60B3DC"/>
<rect width="7.52081" height="14.4271" transform="matrix(-0.858993 -0.511988 0.46404 -0.885814 48.4603 94.3527)" fill="#60B3DC"/>
<rect width="7.52081" height="14.4271" transform="matrix(-0.858993 -0.511988 0.46404 -0.885814 48.4603 109.274)" fill="#60B3DC"/>
<rect width="7.52081" height="14.4271" transform="matrix(-0.858993 -0.511988 0.46404 -0.885814 33.4604 33.9449)" fill="#C0A156"/>
<rect width="7.52081" height="14.4271" transform="matrix(-0.858993 -0.511988 0.46404 -0.885814 48.4603 49.5885)" fill="#60B3DC"/>
<rect width="7.52081" height="14.4271" transform="matrix(-0.858993 -0.511988 0.46404 -0.885814 48.4603 64.5099)" fill="#60B3DC"/>
<rect width="7.52081" height="14.4271" transform="matrix(-0.858993 -0.511988 0.46404 -0.885814 48.4603 79.4313)" fill="#60B3DC"/>
<rect width="7.52081" height="14.4271" transform="matrix(-0.858993 -0.511988 0.46404 -0.885814 48.4603 94.3527)" fill="#60B3DC"/>
<rect width="7.52081" height="14.4271" transform="matrix(-0.858993 -0.511988 0.46404 -0.885814 48.4603 109.274)" fill="#60B3DC"/>
<rect width="7.52081" height="14.4271" transform="matrix(-0.858993 -0.511988 0.46404 -0.885814 48.0927 124.317)" fill="#C0A156"/>
<rect width="7.52081" height="14.4271" transform="matrix(-0.858993 -0.511988 0.46404 -0.885814 48.4603 139.117)" fill="#F25185"/>
<rect width="7.52081" height="14.4271" transform="matrix(-0.858993 -0.511988 0.46404 -0.885814 48.4603 154.038)" fill="#F25185"/>
<rect width="7.52081" height="14.4271" transform="matrix(-0.858993 -0.511988 0.46404 -0.885814 48.4603 168.959)" fill="#F25185"/>
<rect width="7.52081" height="14.4271" transform="matrix(-0.858993 -0.511988 0.46404 -0.885814 48.0927 124.317)" fill="#C0A156"/>
<rect width="7.52081" height="14.4271" transform="matrix(-0.858993 -0.511988 0.46404 -0.885814 48.4603 139.117)" fill="#F25185"/>
<rect width="7.52081" height="14.4271" transform="matrix(-0.858993 -0.511988 0.46404 -0.885814 48.4603 154.038)" fill="#F25185"/>
<rect width="7.52081" height="14.4271" transform="matrix(-0.858993 -0.511988 0.46404 -0.885814 48.4603 168.959)" fill="#F25185"/>
<rect width="7.52081" height="14.4271" transform="matrix(-0.858993 -0.511988 0.46404 -0.885814 49.7379 33.9449)" fill="#60B3DC"/>
<rect width="7.52081" height="14.4271" transform="matrix(-0.858993 -0.511988 0.46404 -0.885814 64.7381 49.5885)" fill="#60B3DC"/>
<rect width="7.52081" height="14.4271" transform="matrix(-0.858993 -0.511988 0.46404 -0.885814 64.7381 64.5099)" fill="#60B3DC"/>
<rect width="7.52081" height="14.4271" transform="matrix(-0.858993 -0.511988 0.46404 -0.885814 64.7381 79.4313)" fill="#60B3DC"/>
<rect width="7.52081" height="14.4271" transform="matrix(-0.858993 -0.511988 0.46404 -0.885814 64.7381 94.3527)" fill="#60B3DC"/>
<rect width="7.52081" height="14.4271" transform="matrix(-0.858993 -0.511988 0.46404 -0.885814 64.7381 109.274)" fill="#60B3DC"/>
<rect width="7.52081" height="14.4271" transform="matrix(-0.858993 -0.511988 0.46404 -0.885814 49.7379 33.9449)" fill="#60B3DC"/>
<rect width="7.52081" height="14.4271" transform="matrix(-0.858993 -0.511988 0.46404 -0.885814 64.7381 64.5099)" fill="#60B3DC"/>
<rect width="7.52081" height="14.4271" transform="matrix(-0.858993 -0.511988 0.46404 -0.885814 64.7381 79.4313)" fill="#60B3DC"/>
<rect width="7.52081" height="14.4271" transform="matrix(-0.858993 -0.511988 0.46404 -0.885814 64.7381 94.3527)" fill="#60B3DC"/>
<rect width="7.52081" height="14.4271" transform="matrix(-0.858993 -0.511988 0.46404 -0.885814 64.7381 109.274)" fill="#60B3DC"/>
<rect width="7.52081" height="14.4271" transform="matrix(-0.858993 -0.511988 0.46404 -0.885814 64.3702 124.317)" fill="#F25185"/>
<rect width="7.52081" height="14.4271" transform="matrix(-0.858993 -0.511988 0.46404 -0.885814 64.7381 139.117)" fill="#F25185"/>
<rect width="7.52081" height="14.4271" transform="matrix(-0.858993 -0.511988 0.46404 -0.885814 64.7381 154.038)" fill="#F25185"/>
<rect width="7.52081" height="14.4271" transform="matrix(-0.858993 -0.511988 0.46404 -0.885814 64.7381 168.959)" fill="#F25185"/>
<rect width="7.52081" height="14.4271" transform="matrix(-0.858993 -0.511988 0.46404 -0.885814 64.3702 124.317)" fill="#F25185"/>
<rect width="7.52081" height="14.4271" transform="matrix(-0.858993 -0.511988 0.46404 -0.885814 64.7381 139.117)" fill="#F25185"/>
<rect width="7.52081" height="14.4271" transform="matrix(-0.858993 -0.511988 0.46404 -0.885814 64.7381 154.038)" fill="#F25185"/>
<rect width="7.52081" height="14.4271" transform="matrix(-0.858993 -0.511988 0.46404 -0.885814 64.7381 168.959)" fill="#F25185"/>
<rect width="7.52081" height="14.4271" transform="matrix(-0.858993 -0.511988 0.46404 -0.885814 63.303 33.9449)" fill="#60B3DC"/>
<rect width="7.52081" height="14.4271" transform="matrix(-0.858993 -0.511988 0.46404 -0.885814 78.3028 49.5885)" fill="#60B3DC"/>
<rect width="7.52081" height="14.4271" transform="matrix(-0.858993 -0.511988 0.46404 -0.885814 78.3028 64.5099)" fill="#60B3DC"/>
<rect width="7.52081" height="14.4271" transform="matrix(-0.858993 -0.511988 0.46404 -0.885814 78.3028 79.4313)" fill="#60B3DC"/>
<rect width="7.52081" height="14.4271" transform="matrix(-0.858993 -0.511988 0.46404 -0.885814 78.3028 94.3527)" fill="#60B3DC"/>
<rect width="7.52081" height="14.4271" transform="matrix(-0.858993 -0.511988 0.46404 -0.885814 78.3028 49.5885)" fill="#60B3DC"/>
<rect width="7.52081" height="14.4271" transform="matrix(-0.858993 -0.511988 0.46404 -0.885814 78.3028 64.5099)" fill="#60B3DC"/>
<rect width="7.52081" height="14.4271" transform="matrix(-0.858993 -0.511988 0.46404 -0.885814 78.3028 79.4313)" fill="#60B3DC"/>
<rect width="7.52081" height="14.4271" transform="matrix(-0.858993 -0.511988 0.46404 -0.885814 78.3028 94.3527)" fill="#60B3DC"/>
<rect width="7.52081" height="14.4271" transform="matrix(-0.858993 -0.511988 0.46404 -0.885814 77.9354 124.317)" fill="#F25185"/>
<rect width="7.52081" height="14.4271" transform="matrix(-0.858993 -0.511988 0.46404 -0.885814 78.3028 139.117)" fill="#F25185"/>
<rect width="7.52081" height="14.4271" transform="matrix(-0.858993 -0.511988 0.46404 -0.885814 78.3028 154.038)" fill="#F25185"/>
<rect width="7.52081" height="14.4271" transform="matrix(-0.858993 -0.511988 0.46404 -0.885814 78.3028 168.959)" fill="#F25185"/>
<rect width="7.52081" height="14.4271" transform="matrix(-0.858993 -0.511988 0.46404 -0.885814 185.528 216.589)" fill="#60B3DC"/>
<rect width="7.52081" height="14.4271" transform="matrix(-0.858993 -0.511988 0.46404 -0.885814 78.3028 139.117)" fill="#F25185"/>
<rect width="7.52081" height="14.4271" transform="matrix(-0.858993 -0.511988 0.46404 -0.885814 78.3028 154.038)" fill="#F25185"/>
<rect width="7.52081" height="14.4271" transform="matrix(-0.858993 -0.511988 0.46404 -0.885814 78.3028 168.959)" fill="#F25185"/>
<rect width="7.52081" height="14.4271" transform="matrix(-0.858993 -0.511988 0.46404 -0.885814 79.5806 33.9449)" fill="#9B62DF"/>
<rect width="7.52081" height="14.4271" transform="matrix(-0.858993 -0.511988 0.46404 -0.885814 94.5809 49.5885)" fill="#9629C4"/>
<rect width="7.52081" height="14.4271" transform="matrix(-0.858993 -0.511988 0.46404 -0.885814 94.5809 64.5099)" fill="#9629C4"/>
<rect width="7.52081" height="14.4271" transform="matrix(-0.858993 -0.511988 0.46404 -0.885814 94.5809 94.3527)" fill="#9629C4"/>
<rect width="7.52081" height="14.4271" transform="matrix(-0.858993 -0.511988 0.46404 -0.885814 94.5809 109.274)" fill="#9629C4"/>
<rect width="7.52081" height="14.4271" transform="matrix(-0.858993 -0.511988 0.46404 -0.885814 79.5806 33.9449)" fill="#9629C4"/>
<rect width="7.52081" height="14.4271" transform="matrix(-0.858993 -0.511988 0.46404 -0.885814 94.5809 49.5885)" fill="#9629C4"/>
<rect width="7.52081" height="14.4271" transform="matrix(-0.858993 -0.511988 0.46404 -0.885814 94.5809 64.5099)" fill="#9629C4"/>
<rect width="7.52081" height="14.4271" transform="matrix(-0.858993 -0.511988 0.46404 -0.885814 94.5809 94.3527)" fill="#9629C4"/>
<rect width="7.52081" height="14.4271" transform="matrix(-0.858993 -0.511988 0.46404 -0.885814 94.5809 109.274)" fill="#9629C4"/>
<rect width="7.52081" height="14.4271" transform="matrix(-0.858993 -0.511988 0.46404 -0.885814 94.213 124.317)" fill="#9629C4"/>
<rect width="7.52081" height="14.4271" transform="matrix(-0.858993 -0.511988 0.46404 -0.885814 94.5809 139.117)" fill="#9629C4"/>
<rect width="7.52081" height="14.4271" transform="matrix(-0.858993 -0.511988 0.46404 -0.885814 94.5809 154.038)" fill="#9629C4"/>
<rect width="7.52081" height="14.4271" transform="matrix(-0.858993 -0.511988 0.46404 -0.885814 94.5809 168.959)" fill="#9629C4"/>
<rect width="7.52081" height="14.4271" transform="matrix(-0.858993 -0.511988 0.46404 -0.885814 94.213 124.317)" fill="#9629C4"/>
<rect width="7.52081" height="14.4271" transform="matrix(-0.858993 -0.511988 0.46404 -0.885814 94.5809 139.117)" fill="#9629C4"/>
<rect width="7.52081" height="14.4271" transform="matrix(-0.858993 -0.511988 0.46404 -0.885814 94.5809 154.038)" fill="#9629C4"/>
<rect width="7.52081" height="14.4271" transform="matrix(-0.858993 -0.511988 0.46404 -0.885814 94.5809 168.959)" fill="#9629C4"/>
<rect width="7.52081" height="14.4271" transform="matrix(-0.858993 -0.511988 0.46404 -0.885814 140.334 110.752)" fill="#F25185"/>
<rect width="7.52081" height="14.4271" transform="matrix(-0.858993 -0.511988 0.46404 -0.885814 140.334 125.673)" fill="#F25185"/>
<rect width="7.52081" height="14.4271" transform="matrix(-0.858993 -0.511988 0.46404 -0.885814 140.334 110.752)" fill="#F25185"/>
<rect width="7.52081" height="14.4271" transform="matrix(-0.858993 -0.511988 0.46404 -0.885814 156.611 78.1964)" fill="#F25185"/>
<rect width="7.52081" height="14.4271" transform="matrix(-0.858993 -0.511988 0.46404 -0.885814 140.334 125.673)" fill="#F25185"/>
</svg>
