<svg width="109" height="170" viewBox="0 0 109 170" fill="none" xmlns="http://www.w3.org/2000/svg">
<rect width="6.48936" height="12.4484" transform="matrix(-0.858993 -0.511988 0.46404 -0.885814 66.877 28.395)" fill="#F25185"/>
<rect width="6.48936" height="12.4484" transform="matrix(-0.858993 -0.511988 0.46404 -0.885814 66.877 41.27)" fill="#F25185"/>
<rect width="6.48936" height="12.4484" transform="matrix(-0.858993 -0.511988 0.46404 -0.885814 66.877 54.145)" fill="#9629C4"/>
<rect width="6.48936" height="12.4484" transform="matrix(-0.858993 -0.511988 0.46404 -0.885814 66.877 67.02)" fill="#9629C4"/>
<rect width="6.48936" height="12.4484" transform="matrix(-0.858993 -0.511988 0.46404 -0.885814 66.5596 80)" fill="#9629C4"/>
<rect width="6.48936" height="12.4484" transform="matrix(-0.858993 -0.511988 0.46404 -0.885814 66.877 28.395)" fill="#F25185"/>
<rect width="6.48936" height="12.4484" transform="matrix(-0.858993 -0.511988 0.46404 -0.885814 66.877 41.27)" fill="#F25185"/>
<rect width="6.48936" height="12.4484" transform="matrix(-0.858993 -0.511988 0.46404 -0.885814 66.877 54.145)" fill="#9629C4"/>
<rect width="6.48936" height="12.4484" transform="matrix(-0.858993 -0.511988 0.46404 -0.885814 66.877 67.02)" fill="#9629C4"/>
<rect width="6.48936" height="12.4484" transform="matrix(-0.858993 -0.511988 0.46404 -0.885814 54.0017 27.2246)" fill="#60B3DC"/>
<rect width="6.48936" height="12.4484" transform="matrix(-0.858993 -0.511988 0.46404 -0.885814 54.0017 40.0996)" fill="#60B3DC"/>
<rect width="6.48936" height="12.4484" transform="matrix(-0.858993 -0.511988 0.46404 -0.885814 54.0017 52.9746)" fill="#60B3DC"/>
<rect width="6.48936" height="12.4484" transform="matrix(-0.858993 -0.511988 0.46404 -0.885814 54.0017 65.8496)" fill="#60B3DC"/>
<rect width="6.48936" height="12.4484" transform="matrix(-0.858993 -0.511988 0.46404 -0.885814 53.6846 78.8296)" fill="#60B3DC"/>
<rect width="6.48936" height="12.4484" transform="matrix(-0.858993 -0.511988 0.46404 -0.885814 54.0017 27.2246)" fill="#60B3DC"/>
<rect width="6.48936" height="12.4484" transform="matrix(-0.858993 -0.511988 0.46404 -0.885814 53.6846 14.3496)" fill="#60B3DC"/>
<rect width="6.48936" height="12.4484" transform="matrix(-0.858993 -0.511988 0.46404 -0.885814 54.0017 40.0996)" fill="#60B3DC"/>
<rect width="6.48936" height="12.4484" transform="matrix(-0.858993 -0.511988 0.46404 -0.885814 54.0017 52.9746)" fill="#60B3DC"/>
<rect width="6.48936" height="12.4484" transform="matrix(-0.858993 -0.511988 0.46404 -0.885814 54.0017 65.8496)" fill="#60B3DC"/>
<rect width="6.48936" height="12.4484" transform="matrix(-0.858993 -0.511988 0.46404 -0.885814 78.5813 41.27)" fill="#F25185"/>
<rect width="6.48936" height="12.4484" transform="matrix(-0.858993 -0.511988 0.46404 -0.885814 78.5813 54.145)" fill="#9629C4"/>
<rect width="6.48936" height="12.4484" transform="matrix(-0.858993 -0.511988 0.46404 -0.885814 78.5813 67.02)" fill="#9629C4"/>
<rect width="6.48936" height="12.4484" transform="matrix(-0.858993 -0.511988 0.46404 -0.885814 78.2642 80)" fill="#9629C4"/>
<rect width="6.48936" height="12.4484" transform="matrix(-0.858993 -0.511988 0.46404 -0.885814 78.5813 41.27)" fill="#F25185"/>
<rect width="6.48936" height="12.4484" transform="matrix(-0.858993 -0.511988 0.46404 -0.885814 78.5813 54.145)" fill="#9629C4"/>
<rect width="6.48936" height="12.4484" transform="matrix(-0.858993 -0.511988 0.46404 -0.885814 78.5813 67.02)" fill="#9629C4"/>
<rect width="6.48936" height="12.4484" transform="matrix(-0.858993 -0.511988 0.46404 -0.885814 91.4563 54.145)" fill="#9629C4"/>
<rect width="6.48936" height="12.4484" transform="matrix(-0.858993 -0.511988 0.46404 -0.885814 91.4563 67.02)" fill="#9629C4"/>
<rect width="6.48936" height="12.4484" transform="matrix(-0.858993 -0.511988 0.46404 -0.885814 91.1392 80)" fill="#9629C4"/>
<rect width="6.48936" height="12.4484" transform="matrix(-0.858993 -0.511988 0.46404 -0.885814 91.4563 54.145)" fill="#9629C4"/>
<rect width="6.48936" height="12.4484" transform="matrix(-0.858993 -0.511988 0.46404 -0.885814 91.4563 67.02)" fill="#9629C4"/>
<rect width="6.48936" height="12.4484" transform="matrix(-0.858993 -0.511988 0.46404 -0.885814 103.161 67.02)" fill="#9629C4"/>
<rect width="6.48936" height="12.4484" transform="matrix(-0.858993 -0.511988 0.46404 -0.885814 102.844 80)" fill="#9629C4"/>
<rect width="6.48936" height="12.4484" transform="matrix(-0.858993 -0.511988 0.46404 -0.885814 103.161 67.02)" fill="#9629C4"/>
<rect width="7.52081" height="14.4271" transform="matrix(-0.858993 -0.511988 0.46404 -0.885814 35.4602 134.63)" fill="#60B3DC"/>
<rect width="7.52081" height="14.4271" transform="matrix(-0.858993 -0.511988 0.46404 -0.885814 6.46021 19.6304)" fill="#9629C4"/>
<rect width="8.18074" height="15.693" transform="matrix(-0.858993 -0.511988 0.46404 -0.885814 56.3716 169.026)" fill="#C0A156"/>
<rect width="8.18074" height="15.693" transform="matrix(-0.858993 -0.511988 0.46404 -0.885814 79.3716 143.026)" fill="#F25185"/>
</svg>
