<svg width="83" height="40" viewBox="0 0 83 40" fill="none" xmlns="http://www.w3.org/2000/svg">
<rect width="6.28973" height="12.0655" transform="matrix(-0.858993 -0.511988 0.46404 -0.885814 5.40283 13.9082)" fill="#60B3DC"/>
<rect width="6.28973" height="12.0655" transform="matrix(-0.858993 -0.511988 0.46404 -0.885814 5.40283 26.3867)" fill="#60B3DC"/>
<rect width="6.28973" height="12.0655" transform="matrix(-0.858993 -0.511988 0.46404 -0.885814 5.40283 38.8657)" fill="#60B3DC"/>
<rect width="6.28973" height="12.0655" transform="matrix(-0.858993 -0.511988 0.46404 -0.885814 5.40283 13.9082)" fill="#60B3DC"/>
<rect width="6.28973" height="12.0655" transform="matrix(-0.858993 -0.511988 0.46404 -0.885814 5.40283 26.3867)" fill="#60B3DC"/>
<rect width="6.28973" height="12.0655" transform="matrix(-0.858993 -0.511988 0.46404 -0.885814 5.40283 38.8657)" fill="#60B3DC"/>
<rect width="6.28973" height="12.0655" transform="matrix(-0.858993 -0.511988 0.46404 -0.885814 16.7473 15.042)" fill="#96E489"/>
<rect width="6.28973" height="12.0655" transform="matrix(-0.858993 -0.511988 0.46404 -0.885814 16.7473 27.5215)" fill="#96E489"/>
<rect width="6.28973" height="12.0655" transform="matrix(-0.858993 -0.511988 0.46404 -0.885814 16.7473 40)" fill="#96E489"/>
<rect width="6.28973" height="12.0655" transform="matrix(-0.858993 -0.511988 0.46404 -0.885814 16.7473 15.042)" fill="#F25185"/>
<rect width="6.28973" height="12.0655" transform="matrix(-0.858993 -0.511988 0.46404 -0.885814 16.7473 27.5215)" fill="#C0A156"/>
<rect width="6.28973" height="12.0655" transform="matrix(-0.858993 -0.511988 0.46404 -0.885814 16.7473 40)" fill="#F25185"/>
<rect width="6.28973" height="12.0655" transform="matrix(-0.858993 -0.511988 0.46404 -0.885814 29.2261 27.5215)" fill="#F25185"/>
<rect width="6.28973" height="12.0655" transform="matrix(-0.858993 -0.511988 0.46404 -0.885814 29.2261 27.5215)" fill="#F25185"/>
<rect width="6.28973" height="12.0655" transform="matrix(-0.858993 -0.511988 0.46404 -0.885814 40.5706 15.042)" fill="#F25185"/>
<rect width="6.28973" height="12.0655" transform="matrix(-0.858993 -0.511988 0.46404 -0.885814 40.5706 27.5215)" fill="#F25185"/>
<rect width="6.28973" height="12.0655" transform="matrix(-0.858993 -0.511988 0.46404 -0.885814 40.5706 40)" fill="#F25185"/>
<rect width="6.28973" height="12.0655" transform="matrix(-0.858993 -0.511988 0.46404 -0.885814 40.5706 15.042)" fill="#F25185"/>
<rect width="6.28973" height="12.0655" transform="matrix(-0.858993 -0.511988 0.46404 -0.885814 40.5706 27.5215)" fill="#F25185"/>
<rect width="6.28973" height="12.0655" transform="matrix(-0.858993 -0.511988 0.46404 -0.885814 53.0496 15.042)" fill="#60B3DC"/>
<rect width="6.28973" height="12.0655" transform="matrix(-0.858993 -0.511988 0.46404 -0.885814 53.0496 27.5215)" fill="#60B3DC"/>
<rect width="6.28973" height="12.0655" transform="matrix(-0.858993 -0.511988 0.46404 -0.885814 53.0496 40)" fill="#60B3DC"/>
<rect width="6.28973" height="12.0655" transform="matrix(-0.858993 -0.511988 0.46404 -0.885814 53.0496 15.042)" fill="#60B3DC"/>
<rect width="6.28973" height="12.0655" transform="matrix(-0.858993 -0.511988 0.46404 -0.885814 53.0496 27.5215)" fill="#60B3DC"/>
<rect width="6.28973" height="12.0655" transform="matrix(-0.858993 -0.511988 0.46404 -0.885814 53.0496 40)" fill="#60B3DC"/>
<rect width="6.28973" height="12.0655" transform="matrix(-0.858993 -0.511988 0.46404 -0.885814 65.5283 15.042)" fill="#9629C4"/>
<rect width="6.28973" height="12.0655" transform="matrix(-0.858993 -0.511988 0.46404 -0.885814 65.5283 27.5215)" fill="#9629C4"/>
<rect width="6.28973" height="12.0655" transform="matrix(-0.858993 -0.511988 0.46404 -0.885814 65.5283 40)" fill="#9629C4"/>
<rect width="6.28973" height="12.0655" transform="matrix(-0.858993 -0.511988 0.46404 -0.885814 65.5283 15.042)" fill="#9629C4"/>
<rect width="6.28973" height="12.0655" transform="matrix(-0.858993 -0.511988 0.46404 -0.885814 65.5283 27.5215)" fill="#9629C4"/>
<rect width="6.28973" height="12.0655" transform="matrix(-0.858993 -0.511988 0.46404 -0.885814 65.5283 40)" fill="#9629C4"/>
<rect width="6.28973" height="12.0655" transform="matrix(-0.858993 -0.511988 0.46404 -0.885814 76.8726 15.042)" fill="#9629C4"/>
<rect width="6.28973" height="12.0655" transform="matrix(-0.858993 -0.511988 0.46404 -0.885814 76.8726 27.5215)" fill="#9629C4"/>
<rect width="6.28973" height="12.0655" transform="matrix(-0.858993 -0.511988 0.46404 -0.885814 76.8726 15.042)" fill="#9629C4"/>
<rect width="6.28973" height="12.0655" transform="matrix(-0.858993 -0.511988 0.46404 -0.885814 76.8726 27.5215)" fill="#9629C4"/>
</svg>
