<svg width="464" height="91" viewBox="0 0 464 91" fill="none" xmlns="http://www.w3.org/2000/svg">
<rect width="7.82149" height="15.0039" transform="matrix(-0.858993 -0.511988 0.46404 -0.885814 154.685 17.2952)" fill="#9629C4"/>
<rect width="7.82149" height="15.0039" transform="matrix(-0.858993 -0.511988 0.46404 -0.885814 194.346 43.7061)" fill="#9629C4"/>
<rect width="7.82149" height="15.0039" transform="matrix(-0.858993 -0.511988 0.46404 -0.885814 194.346 59.2241)" fill="#9629C4"/>
<rect width="7.82149" height="15.0039" transform="matrix(-0.858993 -0.511988 0.46404 -0.885814 194.346 74.7422)" fill="#F25185"/>
<rect width="7.82149" height="15.0039" transform="matrix(-0.858993 -0.511988 0.46404 -0.885814 194.346 90.2603)" fill="#F25185"/>
<rect width="7.82149" height="15.0039" transform="matrix(-0.858993 -0.511988 0.46404 -0.885814 194.346 43.7061)" fill="#9629C4"/>
<rect width="7.82149" height="15.0039" transform="matrix(-0.858993 -0.511988 0.46404 -0.885814 194.346 59.2241)" fill="#9629C4"/>
<rect width="7.82149" height="15.0039" transform="matrix(-0.858993 -0.511988 0.46404 -0.885814 194.346 74.7422)" fill="#F25185"/>
<rect width="7.82149" height="15.0039" transform="matrix(-0.858993 -0.511988 0.46404 -0.885814 194.346 90.2603)" fill="#F25185"/>
<rect width="7.82149" height="15.0039" transform="matrix(-0.858993 -0.511988 0.46404 -0.885814 99.8275 59.2241)" fill="#9629C4"/>
<rect width="7.82149" height="15.0039" transform="matrix(-0.858993 -0.511988 0.46404 -0.885814 99.8275 74.7422)" fill="#9629C4"/>
<rect width="7.82149" height="15.0039" transform="matrix(-0.858993 -0.511988 0.46404 -0.885814 99.8275 90.2603)" fill="#9629C4"/>
<rect width="7.82149" height="15.0039" transform="matrix(-0.858993 -0.511988 0.46404 -0.885814 99.8275 59.2241)" fill="#9629C4"/>
<rect width="7.82149" height="15.0039" transform="matrix(-0.858993 -0.511988 0.46404 -0.885814 99.8275 74.7422)" fill="#9629C4"/>
<rect width="7.82149" height="15.0039" transform="matrix(-0.858993 -0.511988 0.46404 -0.885814 99.8275 90.2603)" fill="#9629C4"/>
<rect width="7.82149" height="15.0039" transform="matrix(-0.858993 -0.511988 0.46404 -0.885814 53.2738 43.7061)" fill="#C0A156"/>
<rect width="7.82149" height="15.0039" transform="matrix(-0.858993 -0.511988 0.46404 -0.885814 53.2738 59.2241)" fill="#C0A156"/>
<rect width="7.82149" height="15.0039" transform="matrix(-0.858993 -0.511988 0.46404 -0.885814 53.2738 74.7422)" fill="#F25185"/>
<rect width="7.82149" height="15.0039" transform="matrix(-0.858993 -0.511988 0.46404 -0.885814 53.2738 90.2603)" fill="#F25185"/>
<rect width="7.82149" height="15.0039" transform="matrix(-0.858993 -0.511988 0.46404 -0.885814 53.2738 43.7061)" fill="#FDE12D"/>
<rect width="7.82149" height="15.0039" transform="matrix(-0.858993 -0.511988 0.46404 -0.885814 53.2738 59.2241)" fill="#FDE12D"/>
<rect width="7.82149" height="15.0039" transform="matrix(-0.858993 -0.511988 0.46404 -0.885814 53.2738 74.7422)" fill="#F25185"/>
<rect width="7.82149" height="15.0039" transform="matrix(-0.858993 -0.511988 0.46404 -0.885814 53.2738 90.2603)" fill="#F25185"/>
<rect width="7.82149" height="15.0039" transform="matrix(-0.858993 -0.511988 0.46404 -0.885814 37.7557 43.7061)" fill="#F25185"/>
<rect width="7.82149" height="15.0039" transform="matrix(-0.858993 -0.511988 0.46404 -0.885814 37.7557 74.7422)" fill="#60B3DC"/>
<rect width="7.82149" height="15.0039" transform="matrix(-0.858993 -0.511988 0.46404 -0.885814 37.7557 90.2603)" fill="#60B3DC"/>
<rect width="7.82149" height="15.0039" transform="matrix(-0.858993 -0.511988 0.46404 -0.885814 37.7557 43.7061)" fill="#F25185"/>
<rect width="7.82149" height="15.0039" transform="matrix(-0.858993 -0.511988 0.46404 -0.885814 37.7557 74.7422)" fill="#60B3DC"/>
<rect width="7.82149" height="15.0039" transform="matrix(-0.858993 -0.511988 0.46404 -0.885814 37.7557 90.2603)" fill="#60B3DC"/>
<rect width="7.82149" height="15.0039" transform="matrix(-0.858993 -0.511988 0.46404 -0.885814 22.2377 43.7061)" fill="#F25185"/>
<rect width="7.82149" height="15.0039" transform="matrix(-0.858993 -0.511988 0.46404 -0.885814 22.2377 59.2241)" fill="#F25185"/>
<rect width="7.82149" height="15.0039" transform="matrix(-0.858993 -0.511988 0.46404 -0.885814 22.2377 74.7422)" fill="#60B3DC"/>
<rect width="7.82149" height="15.0039" transform="matrix(-0.858993 -0.511988 0.46404 -0.885814 22.2377 90.2603)" fill="#60B3DC"/>
<rect width="7.82149" height="15.0039" transform="matrix(-0.858993 -0.511988 0.46404 -0.885814 22.2377 43.7061)" fill="#F25185"/>
<rect width="7.82149" height="15.0039" transform="matrix(-0.858993 -0.511988 0.46404 -0.885814 22.2377 59.2241)" fill="#F25185"/>
<rect width="7.82149" height="15.0039" transform="matrix(-0.858993 -0.511988 0.46404 -0.885814 22.2377 74.7422)" fill="#60B3DC"/>
<rect width="7.82149" height="15.0039" transform="matrix(-0.858993 -0.511988 0.46404 -0.885814 22.2377 90.2603)" fill="#60B3DC"/>
<rect width="7.82149" height="15.0039" transform="matrix(-0.858993 -0.511988 0.46404 -0.885814 6.72009 43.7061)" fill="#F25185"/>
<rect width="7.82149" height="15.0039" transform="matrix(-0.858993 -0.511988 0.46404 -0.885814 6.72009 59.2241)" fill="#F25185"/>
<rect width="7.82149" height="15.0039" transform="matrix(-0.858993 -0.511988 0.46404 -0.885814 6.72009 43.7061)" fill="#F25185"/>
<rect width="7.82149" height="15.0039" transform="matrix(-0.858993 -0.511988 0.46404 -0.885814 6.72009 59.2241)" fill="#F25185"/>
<rect width="7.82149" height="15.0039" transform="matrix(-0.858993 -0.511988 0.46404 -0.885814 6.71863 74.7427)" fill="#60B3DC"/>
<rect width="7.82149" height="15.0039" transform="matrix(-0.858993 -0.511988 0.46404 -0.885814 6.71863 90.2607)" fill="#60B3DC"/>
<rect width="7.82149" height="15.0039" transform="matrix(-0.858993 -0.511988 0.46404 -0.885814 6.71863 74.7427)" fill="#60B3DC"/>
<rect width="7.82149" height="15.0039" transform="matrix(-0.858993 -0.511988 0.46404 -0.885814 68.7913 43.7061)" fill="#FDE12D"/>
<rect width="7.82149" height="15.0039" transform="matrix(-0.858993 -0.511988 0.46404 -0.885814 68.7913 59.2241)" fill="#C0A156"/>
<rect width="7.82149" height="15.0039" transform="matrix(-0.858993 -0.511988 0.46404 -0.885814 68.7913 74.7422)" fill="#F25185"/>
<rect width="7.82149" height="15.0039" transform="matrix(-0.858993 -0.511988 0.46404 -0.885814 68.7913 90.2603)" fill="#F25185"/>
<rect width="7.82149" height="15.0039" transform="matrix(-0.858993 -0.511988 0.46404 -0.885814 68.7913 59.2241)" fill="#FDE12D"/>
<rect width="7.82149" height="15.0039" transform="matrix(-0.858993 -0.511988 0.46404 -0.885814 68.7913 74.7422)" fill="#F25185"/>
<rect width="7.82149" height="15.0039" transform="matrix(-0.858993 -0.511988 0.46404 -0.885814 68.7913 90.2603)" fill="#F25185"/>
<rect width="7.82149" height="15.0039" transform="matrix(-0.858993 -0.511988 0.46404 -0.885814 85.7201 43.7061)" fill="#9629C4"/>
<rect width="7.82149" height="15.0039" transform="matrix(-0.858993 -0.511988 0.46404 -0.885814 85.7201 59.2241)" fill="#9629C4"/>
<rect width="7.82149" height="15.0039" transform="matrix(-0.858993 -0.511988 0.46404 -0.885814 85.7201 74.7422)" fill="#9629C4"/>
<rect width="7.82149" height="15.0039" transform="matrix(-0.858993 -0.511988 0.46404 -0.885814 85.7201 43.7061)" fill="#9629C4"/>
<rect width="7.82149" height="15.0039" transform="matrix(-0.858993 -0.511988 0.46404 -0.885814 85.7201 59.2241)" fill="#9629C4"/>
<rect width="7.82149" height="15.0039" transform="matrix(-0.858993 -0.511988 0.46404 -0.885814 85.7201 74.7422)" fill="#9629C4"/>
<rect width="7.82149" height="15.0039" transform="matrix(-0.858993 -0.511988 0.46404 -0.885814 178.828 74.7422)" fill="#60B3DC"/>
<rect width="7.82149" height="15.0039" transform="matrix(-0.858993 -0.511988 0.46404 -0.885814 178.828 90.2603)" fill="#60B3DC"/>
<rect width="7.82149" height="15.0039" transform="matrix(-0.858993 -0.511988 0.46404 -0.885814 178.828 74.7422)" fill="#60B3DC"/>
<rect width="7.82149" height="15.0039" transform="matrix(-0.858993 -0.511988 0.46404 -0.885814 178.828 90.2603)" fill="#60B3DC"/>
<rect width="7.82149" height="15.0039" transform="matrix(-0.858993 -0.511988 0.46404 -0.885814 163.31 74.7422)" fill="#F25185"/>
<rect width="7.82149" height="15.0039" transform="matrix(-0.858993 -0.511988 0.46404 -0.885814 163.31 90.2603)" fill="#F25185"/>
<rect width="7.82149" height="15.0039" transform="matrix(-0.858993 -0.511988 0.46404 -0.885814 163.31 74.7422)" fill="#F25185"/>
<rect width="7.82149" height="15.0039" transform="matrix(-0.858993 -0.511988 0.46404 -0.885814 163.31 90.2603)" fill="#F25185"/>
<rect width="7.82149" height="15.0039" transform="matrix(-0.858993 -0.511988 0.46404 -0.885814 147.791 74.7422)" fill="#60B3DC"/>
<rect width="7.82149" height="15.0039" transform="matrix(-0.858993 -0.511988 0.46404 -0.885814 147.791 90.2603)" fill="#60B3DC"/>
<rect width="7.82149" height="15.0039" transform="matrix(-0.858993 -0.511988 0.46404 -0.885814 147.791 74.7422)" fill="#60B3DC"/>
<rect width="7.82149" height="15.0039" transform="matrix(-0.858993 -0.511988 0.46404 -0.885814 147.791 90.2603)" fill="#60B3DC"/>
<rect width="7.82149" height="15.0039" transform="matrix(-0.858993 -0.511988 0.46404 -0.885814 132.274 74.7422)" fill="#60B3DC"/>
<rect width="7.82149" height="15.0039" transform="matrix(-0.858993 -0.511988 0.46404 -0.885814 132.274 90.2603)" fill="#60B3DC"/>
<rect width="7.82149" height="15.0039" transform="matrix(-0.858993 -0.511988 0.46404 -0.885814 132.274 74.7422)" fill="#60B3DC"/>
<rect width="7.82149" height="15.0039" transform="matrix(-0.858993 -0.511988 0.46404 -0.885814 132.274 90.2603)" fill="#60B3DC"/>
<rect width="7.82149" height="15.0039" transform="matrix(-0.858993 -0.511988 0.46404 -0.885814 115.345 74.7422)" fill="#F25185"/>
<rect width="7.82149" height="15.0039" transform="matrix(-0.858993 -0.511988 0.46404 -0.885814 115.345 90.2603)" fill="#F25185"/>
<rect width="7.82149" height="15.0039" transform="matrix(-0.858993 -0.511988 0.46404 -0.885814 115.345 74.7422)" fill="#F25185"/>
<rect width="7.82149" height="15.0039" transform="matrix(-0.858993 -0.511988 0.46404 -0.885814 115.345 90.2603)" fill="#F25185"/>
<rect width="8.18074" height="15.693" transform="matrix(-0.858993 -0.511988 0.46404 -0.885814 343.027 25.0895)" fill="#60B3DC"/>
<rect width="8.18074" height="15.693" transform="matrix(-0.858993 -0.511988 0.46404 -0.885814 343.027 41.32)" fill="#60B3DC"/>
<rect width="8.18074" height="15.693" transform="matrix(-0.858993 -0.511988 0.46404 -0.885814 343.027 25.0895)" fill="#60B3DC"/>
<rect width="8.18074" height="15.693" transform="matrix(-0.858993 -0.511988 0.46404 -0.885814 343.027 41.32)" fill="#60B3DC"/>
<rect width="8.18074" height="15.693" transform="matrix(-0.858993 -0.511988 0.46404 -0.885814 364.525 44.2299)" fill="#F25185"/>
<rect width="8.18074" height="15.693" transform="matrix(-0.858993 -0.511988 0.46404 -0.885814 379.28 44.2299)" fill="#60B3DC"/>
<rect width="8.18074" height="15.693" transform="matrix(-0.858993 -0.511988 0.46404 -0.885814 396.986 42.7543)" fill="#FDE12D"/>
<rect width="8.18074" height="15.693" transform="matrix(-0.858993 -0.511988 0.46404 -0.885814 411.741 42.7543)" fill="#F25185"/>
<rect width="8.18074" height="15.693" transform="matrix(-0.858993 -0.511988 0.46404 -0.885814 426.496 42.7543)" fill="#9629C4"/>
<rect width="8.18074" height="15.693" transform="matrix(-0.858993 -0.511988 0.46404 -0.885814 441.252 42.7543)" fill="#FDE12D"/>
<rect width="8.18074" height="15.693" transform="matrix(-0.858993 -0.511988 0.46404 -0.885814 456.007 42.7543)" fill="#F25185"/>
<rect width="8.18074" height="15.693" transform="matrix(-0.858993 -0.511988 0.46404 -0.885814 364.525 61.5527)" fill="#F25185"/>
<rect width="8.18074" height="15.693" transform="matrix(-0.858993 -0.511988 0.46404 -0.885814 379.28 61.5527)" fill="#60B3DC"/>
<rect width="8.18074" height="15.693" transform="matrix(-0.858993 -0.511988 0.46404 -0.885814 396.986 60.0771)" fill="#FDE12D"/>
<rect width="8.18074" height="15.693" transform="matrix(-0.858993 -0.511988 0.46404 -0.885814 411.741 60.0771)" fill="#F25185"/>
<rect width="8.18074" height="15.693" transform="matrix(-0.858993 -0.511988 0.46404 -0.885814 426.496 60.0771)" fill="#9629C4"/>
<rect width="8.18074" height="15.693" transform="matrix(-0.858993 -0.511988 0.46404 -0.885814 441.252 60.0771)" fill="#FDE12D"/>
<rect width="8.18074" height="15.693" transform="matrix(-0.858993 -0.511988 0.46404 -0.885814 456.007 60.0771)" fill="#F25185"/>
</svg>
