<svg width="190" height="210" viewBox="0 0 190 210" fill="none" xmlns="http://www.w3.org/2000/svg">
<rect width="8.18074" height="15.693" transform="matrix(-0.858993 -0.511988 0.46404 -0.885814 157.53 18.09)" fill="#60B3DC"/>
<rect width="8.18074" height="15.693" transform="matrix(-0.858993 -0.511988 0.46404 -0.885814 157.53 34.321)" fill="#60B3DC"/>
<rect width="8.18074" height="15.693" transform="matrix(-0.858993 -0.511988 0.46404 -0.885814 157.53 50.5516)" fill="#60B3DC"/>
<rect width="8.18074" height="15.693" transform="matrix(-0.858993 -0.511988 0.46404 -0.885814 157.53 18.09)" fill="#60B3DC"/>
<rect width="8.18074" height="15.693" transform="matrix(-0.858993 -0.511988 0.46404 -0.885814 157.53 34.321)" fill="#60B3DC"/>
<rect width="8.18074" height="15.693" transform="matrix(-0.858993 -0.511988 0.46404 -0.885814 157.53 50.5516)" fill="#60B3DC"/>
<rect width="8.18074" height="15.693" transform="matrix(-0.858993 -0.511988 0.46404 -0.885814 23.2578 53.5027)" fill="#F25185"/>
<rect width="8.18074" height="15.693" transform="matrix(-0.858993 -0.511988 0.46404 -0.885814 23.6574 69.6009)" fill="#F25185"/>
<rect width="8.18074" height="15.693" transform="matrix(-0.858993 -0.511988 0.46404 -0.885814 23.6574 85.8314)" fill="#F25185"/>
<rect width="8.18074" height="15.693" transform="matrix(-0.858993 -0.511988 0.46404 -0.885814 23.6574 102.062)" fill="#F25185"/>
<rect width="8.18074" height="15.693" transform="matrix(-0.858993 -0.511988 0.46404 -0.885814 23.6574 118.293)" fill="#60B3DC"/>
<rect width="8.18074" height="15.693" transform="matrix(-0.858993 -0.511988 0.46404 -0.885814 23.6574 134.523)" fill="#60B3DC"/>
<rect width="8.18074" height="15.693" transform="matrix(-0.858993 -0.511988 0.46404 -0.885814 23.2578 53.5027)" fill="#F25185"/>
<rect width="8.18074" height="15.693" transform="matrix(-0.858993 -0.511988 0.46404 -0.885814 23.6574 69.6009)" fill="#F25185"/>
<rect width="8.18074" height="15.693" transform="matrix(-0.858993 -0.511988 0.46404 -0.885814 23.6574 85.8314)" fill="#F25185"/>
<rect width="8.18074" height="15.693" transform="matrix(-0.858993 -0.511988 0.46404 -0.885814 23.6574 102.062)" fill="#F25185"/>
<rect width="8.18074" height="15.693" transform="matrix(-0.858993 -0.511988 0.46404 -0.885814 23.6574 118.293)" fill="#60B3DC"/>
<rect width="8.18074" height="15.693" transform="matrix(-0.858993 -0.511988 0.46404 -0.885814 23.6574 134.523)" fill="#60B3DC"/>
<rect width="8.18074" height="15.693" transform="matrix(-0.858993 -0.511988 0.46404 -0.885814 54.2437 53.5027)" fill="#C0A156"/>
<rect width="8.18074" height="15.693" transform="matrix(-0.858993 -0.511988 0.46404 -0.885814 54.6433 69.6009)" fill="#C0A156"/>
<rect width="8.18074" height="15.693" transform="matrix(-0.858993 -0.511988 0.46404 -0.885814 54.6433 85.8314)" fill="#C0A156"/>
<rect width="8.18074" height="15.693" transform="matrix(-0.858993 -0.511988 0.46404 -0.885814 54.6433 102.062)" fill="#C0A156"/>
<rect width="8.18074" height="15.693" transform="matrix(-0.858993 -0.511988 0.46404 -0.885814 54.6433 118.293)" fill="#C0A156"/>
<rect width="8.18074" height="15.693" transform="matrix(-0.858993 -0.511988 0.46404 -0.885814 54.6433 134.523)" fill="#C0A156"/>
<rect width="8.18074" height="15.693" transform="matrix(-0.858993 -0.511988 0.46404 -0.885814 54.2437 53.5027)" fill="#FDE12D"/>
<rect width="8.18074" height="15.693" transform="matrix(-0.858993 -0.511988 0.46404 -0.885814 54.6433 69.6009)" fill="#FDE12D"/>
<rect width="8.18074" height="15.693" transform="matrix(-0.858993 -0.511988 0.46404 -0.885814 54.6433 85.8314)" fill="#FDE12D"/>
<rect width="8.18074" height="15.693" transform="matrix(-0.858993 -0.511988 0.46404 -0.885814 54.6433 102.062)" fill="#FDE12D"/>
<rect width="8.18074" height="15.693" transform="matrix(-0.858993 -0.511988 0.46404 -0.885814 54.6433 118.293)" fill="#FDE12D"/>
<rect width="8.18074" height="15.693" transform="matrix(-0.858993 -0.511988 0.46404 -0.885814 54.6433 134.523)" fill="#FDE12D"/>
<rect width="8.18074" height="15.693" transform="matrix(-0.858993 -0.511988 0.46404 -0.885814 123.593 19.5656)" fill="#60B3DC"/>
<rect width="8.18074" height="15.693" transform="matrix(-0.858993 -0.511988 0.46404 -0.885814 123.593 35.7966)" fill="#96E489"/>
<rect width="8.18074" height="15.693" transform="matrix(-0.858993 -0.511988 0.46404 -0.885814 123.593 19.5656)" fill="#60B3DC"/>
<rect width="8.18074" height="15.693" transform="matrix(-0.858993 -0.511988 0.46404 -0.885814 123.593 35.7966)" fill="#FDE12D"/>
<rect width="8.18074" height="15.693" transform="matrix(-0.858993 -0.511988 0.46404 -0.885814 157.937 172.734)" fill="#60B3DC"/>
<rect width="8.18074" height="15.693" transform="matrix(-0.858993 -0.511988 0.46404 -0.885814 157.937 188.964)" fill="#60B3DC"/>
<rect width="8.18074" height="15.693" transform="matrix(-0.858993 -0.511988 0.46404 -0.885814 157.937 172.734)" fill="#60B3DC"/>
<rect width="8.18074" height="15.693" transform="matrix(-0.858993 -0.511988 0.46404 -0.885814 157.937 188.964)" fill="#60B3DC"/>
<rect width="8.18074" height="15.693" transform="matrix(-0.858993 -0.511988 0.46404 -0.885814 179.435 191.874)" fill="#F25185"/>
<rect width="8.18074" height="15.693" transform="matrix(-0.858993 -0.511988 0.46404 -0.885814 194.19 191.874)" fill="#60B3DC"/>
<rect width="8.18074" height="15.693" transform="matrix(-0.858993 -0.511988 0.46404 -0.885814 179.435 209.197)" fill="#F25185"/>
<rect width="8.18074" height="15.693" transform="matrix(-0.858993 -0.511988 0.46404 -0.885814 194.19 209.197)" fill="#60B3DC"/>
<rect width="8.18074" height="15.693" transform="matrix(-0.858993 -0.511988 0.46404 -0.885814 89.656 37.2722)" fill="#60B3DC"/>
<rect width="8.18074" height="15.693" transform="matrix(-0.858993 -0.511988 0.46404 -0.885814 89.656 53.5027)" fill="#60B3DC"/>
<rect width="8.18074" height="15.693" transform="matrix(-0.858993 -0.511988 0.46404 -0.885814 89.656 37.2722)" fill="#60B3DC"/>
<rect width="8.18074" height="15.693" transform="matrix(-0.858993 -0.511988 0.46404 -0.885814 89.656 53.5027)" fill="#60B3DC"/>
<rect width="8.18074" height="15.693" transform="matrix(-0.858993 -0.511988 0.46404 -0.885814 68.9988 53.5027)" fill="#60B3DC"/>
<rect width="8.18074" height="15.693" transform="matrix(-0.858993 -0.511988 0.46404 -0.885814 69.3984 69.6009)" fill="#60B3DC"/>
<rect width="8.18074" height="15.693" transform="matrix(-0.858993 -0.511988 0.46404 -0.885814 69.3984 85.8314)" fill="#60B3DC"/>
<rect width="8.18074" height="15.693" transform="matrix(-0.858993 -0.511988 0.46404 -0.885814 69.3984 102.062)" fill="#60B3DC"/>
<rect width="8.18074" height="15.693" transform="matrix(-0.858993 -0.511988 0.46404 -0.885814 69.3984 69.6009)" fill="#60B3DC"/>
<rect width="8.18074" height="15.693" transform="matrix(-0.858993 -0.511988 0.46404 -0.885814 69.3984 85.8314)" fill="#60B3DC"/>
<rect width="8.18074" height="15.693" transform="matrix(-0.858993 -0.511988 0.46404 -0.885814 69.3984 102.062)" fill="#60B3DC"/>
<rect width="8.18074" height="15.693" transform="matrix(-0.858993 -0.511988 0.46404 -0.885814 38.0129 54.9783)" fill="#F25185"/>
<rect width="8.18074" height="15.693" transform="matrix(-0.858993 -0.511988 0.46404 -0.885814 38.4128 71.0765)" fill="#F25185"/>
<rect width="8.18074" height="15.693" transform="matrix(-0.858993 -0.511988 0.46404 -0.885814 38.4128 87.3069)" fill="#F25185"/>
<rect width="8.18074" height="15.693" transform="matrix(-0.858993 -0.511988 0.46404 -0.885814 38.4128 103.538)" fill="#F25185"/>
<rect width="8.18074" height="15.693" transform="matrix(-0.858993 -0.511988 0.46404 -0.885814 38.0129 54.9783)" fill="#F25185"/>
<rect width="8.18074" height="15.693" transform="matrix(-0.858993 -0.511988 0.46404 -0.885814 38.4128 71.0765)" fill="#F25185"/>
<rect width="8.18074" height="15.693" transform="matrix(-0.858993 -0.511988 0.46404 -0.885814 38.4128 87.3069)" fill="#F25185"/>
<rect width="8.18074" height="15.693" transform="matrix(-0.858993 -0.511988 0.46404 -0.885814 38.4128 103.538)" fill="#F25185"/>
<rect width="8.18074" height="15.693" transform="matrix(-0.858993 -0.511988 0.46404 -0.885814 7.02707 53.5027)" fill="#9629C4"/>
<rect width="8.18074" height="15.693" transform="matrix(-0.858993 -0.511988 0.46404 -0.885814 7.42697 69.6009)" fill="#9629C4"/>
<rect width="8.18074" height="15.693" transform="matrix(-0.858993 -0.511988 0.46404 -0.885814 7.42697 85.8314)" fill="#9629C4"/>
<rect width="8.18074" height="15.693" transform="matrix(-0.858993 -0.511988 0.46404 -0.885814 7.42697 102.062)" fill="#9629C4"/>
<rect width="8.18074" height="15.693" transform="matrix(-0.858993 -0.511988 0.46404 -0.885814 7.42697 69.6009)" fill="#9629C4"/>
<rect width="8.18074" height="15.693" transform="matrix(-0.858993 -0.511988 0.46404 -0.885814 7.42697 85.8314)" fill="#9629C4"/>
<rect width="8.18074" height="15.693" transform="matrix(-0.858993 -0.511988 0.46404 -0.885814 7.42697 102.062)" fill="#9629C4"/>
</svg>
