<?xml version="1.0" standalone="no"?>
<!DOCTYPE svg PUBLIC "-//W3C//DTD SVG 20010904//EN"
 "http://www.w3.org/TR/2001/REC-SVG-20010904/DTD/svg10.dtd">
<svg version="1.0" xmlns="http://www.w3.org/2000/svg"
 width="264.000000pt" height="264.000000pt" viewBox="0 0 264.000000 264.000000"
 preserveAspectRatio="xMidYMid meet">
<metadata>
Created by potrace 1.14, written by Peter Selinger 2001-2017
</metadata>
<g transform="translate(0.000000,264.000000) scale(0.100000,-0.100000)"
fill="#000000" stroke="none">
<path d="M2022 2494 c14 -14 13 -21 -5 -70 l-20 -55 20 -14 21 -15 -21 -55
c-20 -55 -20 -56 -1 -70 10 -8 21 -14 24 -15 3 0 15 26 28 58 l22 57 -21 18
-22 17 22 52 21 51 -21 23 c-11 12 -30 25 -41 28 -19 4 -20 3 -6 -10z"/>
<path d="M1914 2481 c16 -17 16 -21 -4 -70 l-20 -53 21 -16 21 -17 -22 -54
c-20 -51 -20 -54 -3 -67 27 -20 29 -18 52 35 26 61 26 62 2 83 -20 17 -20 17
2 68 l22 52 -21 17 c-11 9 -19 22 -16 29 2 7 -6 12 -24 12 -26 0 -26 -1 -10
-19z"/>
<path d="M1831 2468 c-5 -13 -16 -40 -24 -60 -15 -36 -15 -38 4 -48 24 -13 24
-27 0 -83 l-20 -46 24 -15 c27 -18 26 -18 54 51 l20 51 -22 15 -21 14 21 56
20 56 -23 16 c-23 15 -25 14 -33 -7z"/>
<path d="M2130 2476 c0 -8 -9 -35 -20 -60 -19 -46 -19 -46 0 -59 25 -15 25
-24 1 -80 -18 -42 -18 -45 -1 -57 27 -19 31 -16 55 43 22 53 22 55 4 68 -24
17 -24 26 0 82 l20 46 -24 15 c-30 20 -35 20 -35 2z"/>
<path d="M902 2447 c-14 -39 -16 -103 -3 -111 6 -4 5 -20 0 -42 -12 -42 -8
-96 7 -101 6 -2 22 22 34 53 l24 57 -22 17 -22 18 22 51 21 52 -21 19 c-12 11
-23 20 -25 20 -1 0 -8 -15 -15 -33z"/>
<path d="M1000 2434 c-25 -57 -25 -66 0 -81 19 -13 19 -13 0 -59 -25 -57 -25
-66 1 -82 25 -16 22 -20 47 48 l20 56 -20 16 -21 17 21 55 c12 31 18 57 14 59
-36 19 -43 16 -62 -29z"/>
<path d="M1091 2427 l-22 -52 22 -18 22 -17 -21 -54 c-21 -55 -20 -60 15 -80
8 -4 19 10 32 40 25 55 26 80 6 88 -20 7 -19 25 5 80 19 46 17 54 -18 61 -14
2 -24 -9 -41 -48z"/>
<path d="M1214 2472 c-6 -4 -19 -29 -29 -55 -18 -47 -18 -48 2 -62 l21 -15
-21 -55 c-20 -55 -20 -56 -1 -70 10 -8 21 -14 24 -15 3 0 15 26 28 58 l22 57
-21 17 c-21 18 -21 19 -4 60 9 24 19 48 22 55 6 14 -29 34 -43 25z"/>
<path d="M1738 2454 c-15 -8 -31 -29 -38 -50 -11 -32 -10 -37 9 -50 l20 -15
-21 -55 c-21 -53 -21 -55 -2 -69 10 -8 21 -15 24 -15 3 0 15 26 28 57 l24 57
-21 17 c-18 15 -20 21 -10 46 20 51 28 83 21 87 -4 2 -19 -2 -34 -10z"/>
<path d="M2205 2420 c-18 -40 -18 -41 2 -62 l21 -21 -20 -54 c-21 -53 -21 -54
-2 -68 10 -8 22 -15 25 -15 3 0 16 26 28 57 22 56 22 57 2 76 -18 19 -18 22
-3 64 15 39 15 45 2 53 -26 17 -37 11 -55 -30z"/>
<path d="M1283 2400 c-9 -23 -8 -32 3 -41 12 -9 14 -4 14 30 0 22 -1 41 -3 41
-1 0 -8 -13 -14 -30z"/>
<path d="M2302 2395 c-10 -21 -9 -26 8 -35 25 -13 25 -27 1 -82 -19 -44 -19
-44 2 -61 25 -21 30 -16 56 50 l21 53 -21 10 c-13 8 -19 19 -17 37 2 16 -4 30
-18 39 -19 13 -22 12 -32 -11z"/>
<path d="M1609 2380 c-20 -16 -22 -21 -10 -29 13 -8 12 -17 -4 -65 -16 -46
-17 -57 -5 -71 20 -24 30 -15 55 48 24 57 24 57 3 68 -16 8 -19 17 -14 40 7
34 5 35 -25 9z"/>
<path d="M1522 2299 c-42 -43 -49 -67 -25 -84 10 -8 20 -14 23 -15 10 0 49
115 41 123 -4 4 -22 -7 -39 -24z"/>
<path d="M2407 2264 c-16 -44 -16 -47 0 -60 26 -20 32 -17 47 19 11 27 11 36
-1 60 -7 15 -17 27 -21 27 -4 0 -15 -21 -25 -46z"/>
<path d="M1283 2261 c-7 -20 -8 -33 -1 -37 15 -9 20 1 16 36 l-3 33 -12 -32z"/>
<path d="M1011 2158 c-5 -13 -15 -39 -24 -59 -14 -33 -13 -36 7 -52 20 -17 20
-18 2 -69 -17 -50 -17 -51 2 -71 20 -19 20 -20 1 -64 -24 -56 -24 -65 2 -81
13 -9 17 -17 12 -25 -5 -7 -15 -31 -23 -55 -12 -39 -12 -43 6 -57 23 -17 27
-13 53 51 19 51 19 51 0 71 -20 20 -20 20 0 70 19 50 19 50 0 70 -20 20 -20
20 0 70 l20 50 -21 21 -21 21 21 50 20 50 -24 16 c-23 15 -25 14 -33 -7z"/>
<path d="M1093 2123 l-23 -57 21 -22 c20 -21 20 -21 0 -70 -19 -50 -19 -50 2
-67 l20 -16 -21 -55 -21 -54 22 -15 22 -14 -23 -54 -22 -54 22 -17 c27 -20 28
-19 56 49 l20 52 -23 15 -24 16 19 46 c25 57 25 71 1 84 -20 10 -20 11 -1 53
25 54 25 74 0 87 -19 10 -19 11 2 65 21 54 21 56 2 70 -10 8 -21 14 -24 15 -3
0 -15 -26 -27 -57z"/>
<path d="M1201 2158 c-5 -13 -15 -39 -24 -59 -14 -34 -14 -37 8 -53 l23 -18
-20 -49 -21 -50 20 -21 21 -20 -21 -50 -20 -49 20 -21 21 -20 -21 -50 -20 -49
21 -22 c25 -25 22 -27 50 42 l22 54 -20 22 -21 22 21 48 21 48 -21 22 -21 22
21 48 21 48 -21 22 -21 22 20 51 c15 38 17 53 8 60 -30 22 -37 23 -46 0z"/>
<path d="M1511 2158 c-5 -13 -15 -39 -24 -59 -14 -33 -13 -36 7 -52 20 -17 20
-18 2 -69 -17 -50 -17 -51 2 -71 20 -19 20 -20 1 -64 -24 -56 -24 -65 1 -81
17 -10 19 -16 9 -33 -8 -16 -7 -25 7 -40 23 -26 30 -24 42 11 9 26 8 32 -10
44 l-21 15 21 55 21 55 -21 16 -22 15 22 52 22 52 -22 23 -21 22 21 50 c21 51
20 55 -16 75 -7 5 -15 -1 -21 -16z"/>
<path d="M1593 2123 l-23 -57 21 -22 20 -21 -20 -51 -20 -51 21 -15 21 -15
-21 -55 -21 -54 21 -14 21 -14 -21 -56 -21 -56 25 -16 c23 -16 25 -16 33 6 5
13 16 40 24 60 15 36 15 38 -4 48 -24 13 -24 27 0 82 18 44 18 44 -2 61 -20
16 -20 17 -1 73 l19 57 -22 14 -22 15 21 54 c21 54 21 55 2 69 -10 8 -21 14
-24 15 -3 0 -15 -26 -27 -57z"/>
<path d="M1721 2158 c-36 -98 -36 -96 -13 -115 l21 -18 -21 -48 -21 -48 21
-21 21 -21 -20 -50 c-20 -50 -20 -50 0 -70 19 -20 19 -20 0 -70 -20 -50 -20
-50 0 -71 24 -23 21 -26 49 43 22 54 22 55 3 74 -19 20 -19 20 0 70 l20 50
-21 22 -21 22 21 48 21 48 -21 22 -21 22 20 51 c15 38 17 53 8 60 -30 22 -37
23 -46 0z"/>
<path d="M1821 2138 c-31 -71 -32 -76 -8 -93 21 -15 23 -14 44 32 27 60 28 75
3 91 -18 11 -22 8 -39 -30z"/>
<path d="M2031 2158 c-7 -17 -5 -26 7 -35 22 -18 30 -16 41 6 8 13 7 22 -2 28
-30 24 -37 24 -46 1z"/>
<path d="M2117 2133 c-24 -66 -22 -83 7 -83 18 0 27 9 40 43 20 53 20 57 -1
73 -26 19 -27 18 -46 -33z"/>
<path d="M2211 2129 c-27 -65 -26 -67 5 -61 47 9 73 75 38 98 -20 14 -22 12
-43 -37z"/>
<path d="M2319 2135 l-16 -45 26 6 c14 3 34 15 43 26 17 19 17 21 -6 39 -13
10 -26 19 -28 19 -2 0 -10 -20 -19 -45z"/>
<path d="M901 2138 c-14 -40 -14 -101 0 -115 8 -8 8 -17 0 -31 -14 -27 -14
-95 0 -109 8 -8 8 -17 0 -31 -6 -11 -11 -38 -11 -59 0 -22 5 -44 11 -50 8 -8
8 -17 -1 -32 -14 -26 -9 -103 6 -108 6 -2 22 21 34 52 l23 57 -20 20 -21 20
21 50 20 49 -20 21 c-20 20 -20 20 -1 70 l19 51 -21 22 c-20 21 -20 25 -7 51
29 57 29 70 3 87 -24 16 -25 15 -35 -15z"/>
<path d="M1926 2154 c-10 -27 -7 -31 19 -26 30 5 32 13 6 29 -16 10 -20 9 -25
-3z"/>
<path d="M2427 2148 c-8 -27 -6 -29 21 -21 27 7 28 19 3 32 -15 9 -20 7 -24
-11z"/>
<path d="M1420 2082 c-16 -88 -7 -213 18 -258 9 -15 10 -15 17 6 5 16 1 28
-13 42 l-20 20 21 51 21 50 -22 18 -22 17 20 52 c19 49 19 70 0 70 -4 0 -14
-30 -20 -68z"/>
<path d="M1282 2098 c-10 -27 -9 -35 3 -47 13 -14 15 -10 15 32 0 26 -1 47 -3
47 -1 0 -8 -14 -15 -32z"/>
<path d="M1825 2005 c-4 -11 -14 -34 -21 -52 -11 -29 -10 -33 9 -46 l21 -14
-19 -57 c-19 -54 -19 -58 -2 -67 22 -13 21 -27 -2 -82 l-20 -46 25 -16 c23
-15 25 -15 33 7 5 13 16 40 24 60 15 36 15 38 -4 48 -24 13 -24 27 1 84 19 45
19 46 0 56 -12 7 -18 21 -18 42 0 18 -4 49 -9 68 -9 30 -11 32 -18 15z"/>
<path d="M1283 1951 c-7 -20 -8 -33 -1 -37 15 -9 20 1 16 36 l-3 33 -12 -32z"/>
<path d="M1909 1900 l24 -20 -22 -56 -21 -56 21 -17 21 -16 -21 -52 c-20 -51
-20 -51 0 -69 23 -21 30 -15 54 50 17 47 17 48 -3 68 l-20 20 20 49 c20 48 20
50 2 70 -10 12 -32 28 -49 36 l-30 14 24 -21z"/>
<path d="M2010 1819 c-12 -27 -11 -33 7 -51 l21 -20 -21 -50 -20 -49 21 -22
c25 -25 22 -27 50 42 l22 54 -20 22 c-18 20 -19 26 -8 50 11 24 10 29 -7 41
-27 20 -31 18 -45 -17z"/>
<path d="M1283 1811 c-7 -20 -8 -33 -1 -37 15 -9 20 1 16 36 l-3 33 -12 -32z"/>
<path d="M2096 1795 c-3 -9 3 -19 14 -25 25 -13 25 -27 1 -83 l-20 -46 25 -16
c23 -15 25 -15 33 7 5 13 15 39 24 59 14 34 14 37 -5 50 -10 8 -17 21 -15 30
3 11 -5 21 -20 28 -30 14 -30 14 -37 -4z"/>
<path d="M2216 1718 c-27 -65 -27 -74 -6 -93 24 -21 21 -24 49 45 21 51 21 55
5 67 -26 19 -34 16 -48 -19z"/>
<path d="M1283 1671 c-7 -20 -8 -33 -1 -37 15 -9 20 1 16 36 l-3 33 -12 -32z"/>
<path d="M2303 1670 c-10 -26 -8 -31 13 -45 23 -15 25 -15 34 10 14 36 13 43
-9 55 -26 13 -25 14 -38 -20z"/>
<path d="M2390 1642 c0 -10 33 -42 43 -42 3 0 4 6 1 13 -6 15 -44 40 -44 29z"/>
<path d="M997 1541 c-21 -61 -21 -71 0 -86 17 -12 17 -16 -1 -66 -19 -52 -19
-53 1 -68 l20 -16 -20 -53 c-19 -51 -19 -53 -2 -72 18 -20 18 -22 1 -71 -18
-48 -18 -51 0 -70 21 -24 27 -19 53 47 19 50 19 51 0 70 -19 19 -19 20 0 69
19 49 19 50 0 71 -20 21 -20 22 0 71 l20 50 -21 21 -21 21 21 50 21 51 -22 15
c-12 8 -24 15 -27 15 -3 0 -13 -22 -23 -49z"/>
<path d="M1093 1533 l-23 -57 21 -22 20 -21 -20 -51 -20 -50 22 -15 21 -14
-21 -54 -20 -54 20 -16 21 -16 -21 -56 -22 -56 24 -15 c22 -15 23 -14 44 36
26 62 26 74 4 87 -17 9 -17 13 2 66 19 56 19 58 0 71 -19 14 -19 15 0 70 l19
56 -22 16 -21 17 19 44 c11 24 20 48 20 53 0 10 -29 37 -40 38 -3 0 -15 -26
-27 -57z"/>
<path d="M1195 1553 c-27 -65 -29 -83 -9 -98 19 -13 19 -15 1 -66 -18 -51 -18
-52 1 -72 20 -19 20 -19 -1 -69 l-20 -49 20 -21 21 -20 -20 -49 c-17 -40 -18
-52 -8 -64 20 -24 27 -19 54 38 24 51 24 52 5 72 -18 21 -18 22 0 70 19 49 19
50 0 71 -20 21 -20 22 0 71 l20 50 -21 21 -21 21 21 50 c21 50 20 55 -15 75
-8 4 -18 -6 -28 -31z"/>
<path d="M1721 1569 c-6 -18 -4 -27 8 -36 22 -17 41 -16 41 2 0 8 1 18 3 21 1
4 -8 13 -20 21 -21 14 -23 14 -32 -8z"/>
<path d="M1817 1545 l-16 -46 25 -9 c14 -6 27 -10 28 -10 2 0 9 18 16 40 12
37 12 42 -6 55 -27 20 -28 20 -47 -30z"/>
<path d="M2025 1553 c-28 -67 -29 -83 -6 -99 16 -12 19 -19 12 -33 -7 -13 -5
-20 10 -29 27 -17 36 -15 42 9 4 15 -1 27 -14 38 -21 16 -21 17 -1 68 19 49
19 53 3 67 -25 22 -29 21 -46 -21z"/>
<path d="M2112 1532 l-22 -57 21 -18 c21 -17 21 -19 6 -59 -15 -36 -15 -43 -2
-61 17 -25 20 -84 5 -123 -7 -18 -7 -30 1 -40 8 -10 6 -27 -9 -66 l-20 -53 24
-18 c24 -18 24 -18 33 5 5 13 16 40 24 61 15 35 15 38 -3 50 -25 15 -25 24 -1
80 19 44 19 44 -2 65 l-20 21 21 50 21 51 -23 17 -22 17 19 53 c20 53 20 54 1
68 -10 8 -21 14 -24 15 -3 0 -15 -26 -28 -58z"/>
<path d="M2215 1553 c-27 -63 -28 -78 -6 -97 l20 -18 -20 -51 -21 -52 21 -17
21 -16 -21 -54 -21 -53 21 -17 21 -16 -20 -53 c-20 -49 -20 -53 -4 -70 9 -11
20 -19 24 -19 3 0 16 27 28 61 l22 61 -21 16 -20 17 22 52 22 53 -22 17 -22
18 21 48 22 49 -22 23 -21 22 20 51 c19 48 19 51 2 66 -25 23 -29 21 -46 -21z"/>
<path d="M2313 1530 l-22 -60 21 -15 c21 -14 21 -14 3 -70 -19 -54 -19 -55 0
-69 19 -13 19 -15 0 -70 -19 -55 -19 -56 0 -70 19 -13 19 -15 0 -70 -19 -55
-19 -56 0 -70 25 -18 29 -14 53 51 19 51 19 51 -1 71 l-20 21 21 50 21 51 -21
14 -21 15 20 56 21 55 -21 15 c-21 15 -21 15 -2 70 18 54 18 56 -1 70 -10 8
-21 15 -24 15 -3 0 -15 -27 -27 -60z"/>
<path d="M901 1548 c-14 -38 -14 -105 -1 -113 5 -3 6 -15 0 -29 -19 -51 -20
-95 -3 -104 15 -9 15 -14 -5 -63 l-22 -52 20 -22 21 -22 -21 -48 c-19 -45 -19
-49 -4 -66 10 -11 21 -19 25 -19 4 0 17 26 29 57 l21 58 -21 17 c-20 16 -20
19 -6 50 26 59 27 74 7 92 -20 18 -20 18 0 68 l20 51 -21 22 -21 22 21 47 c21
51 20 60 -10 76 -15 8 -20 5 -29 -22z"/>
<path d="M1911 1524 c-12 -31 -20 -58 -19 -59 2 -1 13 -8 25 -14 21 -10 24 -8
38 26 23 55 23 73 -1 89 -20 14 -22 12 -43 -42z"/>
<path d="M2411 1523 l-22 -56 21 -22 21 -22 -20 -50 c-20 -50 -20 -50 1 -70
19 -19 19 -23 5 -54 -25 -55 -25 -63 -5 -85 19 -21 19 -22 -1 -72 -19 -48 -19
-51 -2 -66 10 -9 20 -16 23 -16 3 0 16 25 29 56 l23 57 -21 17 -20 16 19 53
c20 53 20 53 0 73 l-20 20 21 50 20 49 -21 21 -21 21 20 50 c20 50 20 50 0 68
-11 11 -22 19 -24 19 -2 0 -14 -25 -26 -57z"/>
<path d="M1282 1508 c-10 -27 -9 -35 3 -47 13 -14 15 -10 15 32 0 26 -1 47 -3
47 -1 0 -8 -14 -15 -32z"/>
<path d="M2507 1504 c-13 -14 -7 -39 13 -51 19 -12 19 -13 -2 -64 l-22 -52 22
-17 21 -18 -21 -51 -22 -51 22 -20 21 -20 -21 -50 c-20 -47 -18 -82 2 -50 42
67 51 322 13 408 -10 24 -22 40 -26 36z"/>
<path d="M79 1413 c-5 -27 -5 -90 0 -98 3 -5 6 -33 7 -62 2 -73 14 -86 35 -37
23 51 23 71 2 83 -17 9 -17 12 0 59 9 27 17 52 17 56 0 9 -60 7 -61 -1z"/>
<path d="M165 1384 c-19 -46 -19 -47 4 -68 19 -17 19 -18 -1 -67 l-21 -50 20
-21 21 -20 -20 -49 c-20 -48 -20 -50 -3 -69 22 -25 28 -20 54 46 19 51 19 51
0 71 -20 20 -20 20 0 70 19 50 19 50 0 70 -20 20 -20 20 0 71 l21 52 -30 0
c-25 0 -32 -6 -45 -36z"/>
<path d="M268 1375 c-16 -43 -16 -45 3 -55 23 -13 24 -22 5 -63 -23 -53 -24
-61 -3 -80 l21 -18 -22 -52 -23 -52 23 -19 23 -18 22 48 c27 60 28 80 6 93
-17 9 -17 13 2 66 18 54 18 58 2 70 -22 16 -21 30 3 83 l19 42 -32 0 c-30 0
-34 -4 -49 -45z"/>
<path d="M368 1373 c-16 -46 -16 -48 2 -68 18 -20 18 -21 -1 -70 -18 -48 -18
-50 0 -70 19 -21 19 -28 -6 -83 -14 -30 -14 -34 2 -52 10 -11 21 -20 25 -20 4
0 17 26 29 57 22 56 22 57 2 76 -19 20 -19 20 0 71 l21 51 -21 17 -21 16 20
52 c22 57 20 70 -13 70 -17 0 -26 -10 -39 -47z"/>
<path d="M465 1363 c-4 -18 -1 -31 10 -42 15 -15 16 -13 13 22 -3 47 -14 56
-23 20z"/>
<path d="M1282 1361 c-8 -23 -7 -31 3 -35 9 -3 13 5 13 30 0 42 -3 43 -16 5z"/>
<path d="M476 1250 c-17 -47 -17 -52 -2 -69 20 -22 20 -30 -3 -83 l-18 -43 23
-18 24 -18 19 43 c29 69 29 72 9 94 -14 16 -17 27 -10 45 7 17 4 36 -7 62
l-16 39 -19 -52z"/>
<path d="M1714 1242 c-23 -15 -26 -50 -5 -64 19 -13 19 -14 0 -67 -20 -57 -19
-65 10 -81 16 -8 21 -2 40 51 l22 60 -22 17 c-21 17 -21 19 -5 50 9 17 16 33
16 37 0 8 -43 6 -56 -3z"/>
<path d="M1805 1219 c-5 -23 -3 -34 12 -44 16 -12 17 -17 4 -47 -24 -59 -24
-82 -1 -96 18 -11 21 -10 29 10 5 13 16 40 24 60 15 35 15 39 -1 50 -10 7 -24
32 -31 56 -17 50 -27 53 -36 11z"/>
<path d="M1605 1223 c-31 -8 -35 -24 -12 -43 20 -17 20 -18 4 -61 -22 -57 -21
-71 2 -86 16 -10 21 -5 44 48 25 59 25 59 5 70 -16 9 -19 17 -13 45 3 19 2 33
-2 33 -4 -1 -17 -4 -28 -6z"/>
<path d="M1506 1201 c-28 -6 -28 -6 -8 -24 l20 -19 -20 -49 -21 -50 21 -22 21
-21 26 58 26 59 -21 22 c-12 13 -18 28 -14 38 3 10 5 16 3 16 -2 -1 -17 -4
-33 -8z"/>
<path d="M807 1184 c-3 -3 -3 -12 -1 -19 3 -7 -2 -29 -10 -50 -21 -49 -20 -68
4 -83 18 -11 21 -8 36 25 25 62 29 92 10 99 -9 3 -16 12 -16 20 0 14 -12 19
-23 8z"/>
<path d="M586 1167 c3 -8 -4 -37 -15 -65 l-20 -51 22 -16 c21 -15 23 -14 44
32 29 64 28 76 -7 96 -22 14 -28 14 -24 4z"/>
<path d="M1400 1172 c0 -5 7 -33 16 -63 l17 -54 16 34 c15 32 15 34 -7 52 -13
10 -21 23 -17 29 3 5 -1 10 -9 10 -9 0 -16 -4 -16 -8z"/>
<path d="M111 1140 c12 -34 29 -40 29 -10 0 10 -9 24 -20 30 -18 9 -18 8 -9
-20z"/>
<path d="M719 1153 c-9 -2 -24 -24 -34 -50 -17 -44 -17 -46 3 -65 l20 -20 12
21 c6 12 17 39 25 61 15 42 6 60 -26 53z"/>
<path d="M2044 1139 c-11 -6 -26 -26 -33 -46 -12 -32 -11 -37 8 -56 l20 -21
20 45 c34 78 30 99 -15 78z"/>
<path d="M1908 1086 c-16 -42 -16 -45 3 -62 10 -9 21 -15 23 -13 8 7 47 102
44 105 -2 1 -14 5 -28 9 -23 5 -27 1 -42 -39z"/>
<path d="M1610 996 c0 -8 -9 -35 -20 -61 l-20 -46 23 -23 c27 -27 66 -50 73
-43 3 3 -6 13 -20 24 l-24 20 19 42 c25 56 24 65 -6 85 -21 14 -25 14 -25 2z"/>
<path d="M2025 963 c-10 -26 -22 -52 -26 -57 -5 -6 0 -19 13 -33 21 -23 20
-42 -8 -110 -4 -9 4 -13 23 -13 24 0 33 7 47 36 17 36 16 37 -5 60 l-22 23 21
50 20 49 -22 21 -23 22 -18 -48z"/>
<path d="M205 979 c11 -13 21 -26 22 -28 2 -2 3 3 3 12 0 9 -10 22 -22 28
l-23 12 20 -24z"/>
<path d="M278 962 c-17 -43 -14 -58 12 -72 16 -8 21 -3 36 35 16 44 16 46 -2
60 -27 20 -29 19 -46 -23z"/>
<path d="M490 979 c-6 -11 -17 -37 -25 -59 -13 -37 -13 -39 12 -55 18 -12 22
-20 14 -28 -13 -13 -15 -47 -2 -47 5 0 16 -2 23 -5 9 -4 19 4 25 18 9 20 8 28
-9 45 -20 20 -20 21 -3 70 15 42 16 53 6 66 -18 21 -28 20 -41 -5z"/>
<path d="M571 943 l-22 -58 22 -17 c20 -17 21 -20 6 -57 l-16 -39 28 -4 c24
-4 31 1 43 28 14 31 14 34 -8 53 l-23 20 21 51 c20 50 21 51 2 65 -10 8 -22
15 -25 15 -3 0 -16 -26 -28 -57z"/>
<path d="M701 978 c-5 -13 -15 -39 -23 -58 -14 -34 -14 -36 8 -53 23 -17 23
-20 9 -47 -22 -43 -19 -60 11 -60 19 0 28 8 40 36 14 33 14 36 -8 53 l-22 18
21 51 c22 52 21 56 -15 76 -7 5 -15 -1 -21 -16z"/>
<path d="M792 943 l-24 -57 23 -18 c21 -18 21 -20 6 -58 -15 -40 -15 -40 8
-40 49 0 73 56 36 82 -19 14 -19 14 0 57 24 54 24 68 0 81 -11 5 -21 10 -23
10 -2 0 -13 -26 -26 -57z"/>
<path d="M1001 958 c-29 -68 -29 -72 -4 -92 13 -10 25 -17 26 -15 2 2 11 30
21 61 16 47 17 60 6 73 -20 24 -29 18 -49 -27z"/>
<path d="M1092 948 c-12 -28 -20 -53 -18 -55 2 -2 23 14 45 35 39 37 41 41 26
56 -24 24 -29 21 -53 -36z"/>
<path d="M1509 976 c-10 -20 -8 -29 9 -51 l21 -27 14 34 c12 29 12 35 -1 51
-20 23 -30 22 -43 -7z"/>
<path d="M1715 963 c-27 -63 -28 -78 -6 -97 16 -15 18 -22 9 -42 -13 -27 -12
-29 19 -38 19 -6 25 -2 34 20 9 24 7 30 -12 45 l-23 17 21 50 c20 48 20 51 4
66 -25 22 -29 21 -46 -21z"/>
<path d="M1812 943 l-22 -58 22 -16 c21 -16 21 -18 6 -58 l-16 -41 25 -6 c27
-7 34 -2 50 37 10 23 8 30 -12 49 -24 22 -23 31 15 102 7 12 3 20 -15 32 -13
9 -26 16 -27 16 -2 0 -13 -26 -26 -57z"/>
<path d="M2112 943 l-22 -58 21 -16 c23 -17 22 -22 -6 -91 -11 -28 40 -24 59
4 21 30 20 55 -3 70 -19 11 -19 13 2 66 20 53 20 55 2 68 -10 8 -21 14 -24 14
-3 0 -16 -26 -29 -57z"/>
<path d="M2221 978 c-5 -13 -15 -39 -23 -58 -14 -34 -14 -36 8 -53 22 -16 22
-19 8 -52 -15 -37 -11 -41 29 -26 34 13 41 39 16 60 l-21 16 21 52 c19 49 19
52 2 67 -23 21 -30 20 -40 -6z"/>
<path d="M2312 940 c-21 -59 -21 -60 -2 -70 11 -6 20 -18 20 -27 0 -12 3 -13
15 -3 8 7 12 16 9 22 -3 5 2 32 12 59 18 50 18 51 -1 65 -10 8 -22 14 -25 14
-3 0 -16 -27 -28 -60z"/>
<path d="M371 938 c-11 -28 -21 -56 -20 -62 0 -13 49 -53 75 -63 16 -5 16 -3
-3 18 l-23 25 20 51 c19 52 18 57 -16 76 -7 4 -20 -13 -33 -45z"/>
<path d="M891 935 c-26 -68 -26 -67 -1 -83 16 -10 18 -16 10 -38 -9 -23 -8
-25 12 -18 42 12 50 24 27 43 l-20 16 21 49 c19 46 19 50 4 67 -10 11 -21 19
-25 19 -4 0 -17 -25 -28 -55z"/>
<path d="M1911 933 l-22 -56 21 -22 c19 -20 19 -24 5 -58 -20 -47 -20 -47 14
-47 25 0 31 6 41 35 11 32 10 37 -10 53 l-21 17 21 49 c19 46 19 50 4 67 -10
11 -20 19 -24 19 -4 0 -17 -25 -29 -57z"/>
<path d="M2413 938 c-29 -74 -20 -75 35 -4 17 22 19 32 11 42 -18 22 -25 17
-46 -38z"/>
</g>
</svg>
